<svg width="24" height="24" viewBox="0 0 24 24" fill="none" xmlns="http://www.w3.org/2000/svg">
<path d="M19.37 21.87C18.63 21.87 17.89 21.64 17.33 21.16C16.52 20.64 16.29 19.75 16.06 18.89C15.94 18.43 15.82 18 15.62 17.63C14.09 16.31 12.95 15.33 12 14.52L8.66 17.48C8.47 17.85 8.37 18.28 8.25 18.73C8.03 19.6 7.8 20.5 6.98 21.02C5.93 21.69 4.71 21.76 3.56 21.19L3.13 20.98L3.54 20.75C3.99 20.5 4.45 20.26 4.92 20.03C5.12 19.93 5.32 19.83 5.52 19.72C5.51 19.11 5.5 19.03 5.45 18.4L5.37 18.33C5.08 18.09 4.87 17.9 4.41 17.64C4.16 17.77 3.96 17.87 3.79 17.96C3.35 18.19 3.06 18.33 2.55 18.67L2.22 18.9L2.17 18.5C2.02 17.27 3.13 16.21 4.13 15.67C4.51 15.47 5.02 15.42 5.56 15.38C6.15 15.33 6.75 15.27 7.06 15.01L9.76 12.63C8.76 11.79 7.76 10.96 6.32 9.77L5.32 8.94C5.1 8.9 4.8 8.9 4.52 8.91C4.27 8.92 4.02 8.92 3.82 8.89C2.43 8.67 1.29 7.49 1.28 6.26V5.87L1.63 6.03C2.08 6.23 2.35 6.34 2.54 6.43C2.92 6.59 2.98 6.62 3.4 6.83C3.98 6.65 4.57 6.21 4.34 5.13C3.82 4.81 3.48 4.63 3.01 4.38L2.16 3.93L2.49 3.7C3.11 3.26 4.44 2.92 5.46 3.54C6.65 4.27 6.82 5.19 6.94 5.87C7 6.19 7.04 6.44 7.18 6.55L11.99 10.68L16.87 6.38C17 6.26 17.05 6 17.1 5.69C17.21 5.02 17.37 4.09 18.54 3.35C19.54 2.72 20.87 3.04 21.49 3.47L21.82 3.7L20.93 4.19C20.5 4.42 20.16 4.61 19.68 4.9C19.47 5.97 20.06 6.4 20.63 6.57C21.06 6.35 21.11 6.33 21.51 6.15L22.72 5.6V5.99C22.73 7.21 21.61 8.4 20.24 8.63C20.04 8.66 19.81 8.66 19.54 8.66C19.27 8.66 18.98 8.66 18.75 8.7L18.11 9.24C16.42 10.68 15.34 11.59 14.22 12.57L17.19 15.11C17.5 15.36 18.12 15.41 18.71 15.45C19.18 15.49 19.63 15.52 19.99 15.65C20.51 15.71 21.04 15.94 21.46 16.3C22.07 16.82 22.45 17.61 22.52 18.47C22.59 19.33 22.33 20.18 21.81 20.78C21.21 21.5 20.29 21.87 19.37 21.87ZM12 13.86L12.16 14C13.15 14.84 14.34 15.86 15.98 17.28L16.04 17.35C16.28 17.78 16.41 18.28 16.54 18.76C16.76 19.56 16.96 20.32 17.6 20.73L17.68 20.81C18.71 21.69 20.51 21.55 21.43 20.48C21.86 19.97 22.08 19.26 22.02 18.53C21.96 17.8 21.64 17.13 21.14 16.7C20.79 16.4 20.36 16.22 19.87 16.16C19.52 16.04 19.11 16 18.67 15.97C18 15.92 17.31 15.87 16.87 15.51L13.45 12.59L13.67 12.4C14.87 11.35 15.98 10.41 17.78 8.88L18.56 8.25C18.85 8.18 19.22 8.18 19.52 8.18C19.75 8.18 19.98 8.18 20.14 8.15C21.11 7.99 21.94 7.24 22.16 6.41L21.7 6.62C21.28 6.81 21.26 6.82 20.76 7.08L20.68 7.12L20.59 7.1C19.44 6.81 18.93 5.92 19.21 4.7L19.23 4.6L19.32 4.55C19.86 4.2 20.23 4 20.69 3.75L20.82 3.68C20.26 3.46 19.44 3.38 18.81 3.77C17.83 4.39 17.7 5.15 17.6 5.77C17.54 6.16 17.48 6.52 17.2 6.75L12 11.34L6.86 6.94C6.58 6.71 6.52 6.35 6.45 5.96C6.34 5.34 6.2 4.58 5.2 3.97C4.55 3.57 3.73 3.67 3.16 3.9L3.24 3.94C3.73 4.2 4.11 4.4 4.69 4.75L4.78 4.8L4.8 4.9C5.1 6.11 4.59 7.02 3.44 7.33L3.35 7.35L3.27 7.31C2.77 7.07 2.74 7.05 2.34 6.88C2.22 6.83 2.06 6.76 1.84 6.66C2.07 7.49 2.92 8.24 3.9 8.39C4.06 8.41 4.28 8.41 4.51 8.41C4.85 8.4 5.2 8.4 5.5 8.47L5.6 8.52L6.65 9.39C8.2 10.67 9.23 11.53 10.31 12.44L10.53 12.63L7.39 15.4C6.95 15.76 6.27 15.82 5.61 15.88C5.14 15.92 4.66 15.96 4.37 16.12C3.77 16.43 2.85 17.14 2.69 18C3 17.81 3.25 17.69 3.57 17.52C3.77 17.42 4 17.3 4.3 17.14L4.42 17.08L4.54 17.14C5.13 17.46 5.38 17.68 5.7 17.95L5.94 18.15L5.95 18.25C6.01 19.05 6.01 19.05 6.03 19.86V20.02L5.89 20.09C5.64 20.22 5.39 20.34 5.14 20.47C4.84 20.62 4.54 20.77 4.24 20.93C5.29 21.27 6.14 20.95 6.7 20.59C7.36 20.17 7.55 19.41 7.76 18.6C7.88 18.12 8 17.63 8.23 17.2L8.29 17.13L12 13.86ZM19.08 20.89L18.64 20.51L18.07 20.41L17.88 19.87L17.44 19.5L17.54 18.93L17.34 18.39L17.72 17.95L17.82 17.38L18.36 17.19L18.73 16.75L19.3 16.85L19.84 16.65L20.28 17.02L20.85 17.12L21.05 17.67L21.49 18.04L21.39 18.6L21.59 19.14L21.22 19.58L21.12 20.15L20.57 20.34L20.2 20.78L19.64 20.68L19.08 20.89ZM18.44 19.98L18.85 20.06L19.17 20.33L19.57 20.19L19.98 20.27L20.25 19.95L20.65 19.81L20.72 19.4L20.99 19.08L20.85 18.68L20.93 18.27L20.61 18L20.47 17.6L20.05 17.52L19.73 17.25L19.33 17.39L18.91 17.31L18.64 17.63L18.24 17.77L18.16 18.19L17.89 18.51L18.03 18.91L17.95 19.33L18.27 19.61L18.44 19.98ZM15.68 16.27C15.45 16.27 15.18 16.16 14.95 15.96L7.02 9.17C6.61 8.82 6.48 8.34 6.72 8.05C6.97 7.77 7.46 7.82 7.88 8.18L15.81 14.96C16.06 15.17 16.22 15.45 16.23 15.69C16.24 15.84 16.2 15.98 16.11 16.08C16.02 16.19 15.89 16.25 15.73 16.26C15.71 16.27 15.7 16.27 15.68 16.27ZM7.14 8.37C7.12 8.37 7.1 8.37 7.09 8.38C7.08 8.41 7.12 8.6 7.34 8.79L15.27 15.58C15.49 15.77 15.69 15.78 15.72 15.76C15.74 15.72 15.69 15.53 15.47 15.34L7.55 8.56C7.38 8.41 7.22 8.37 7.14 8.37ZM8.57 16.13C8.4 16.13 8.25 16.07 8.15 15.95C7.9 15.67 8.03 15.19 8.43 14.83L10.75 12.79L10.92 12.94C11.04 13.05 11.17 13.16 11.3 13.27L11.76 13.66L9.3 15.82C9.07 16.03 8.8 16.13 8.57 16.13ZM10.76 13.46L8.77 15.21C8.56 15.4 8.52 15.59 8.53 15.63C8.56 15.65 8.76 15.63 8.97 15.44L10.99 13.66L10.98 13.65C10.9 13.58 10.83 13.52 10.76 13.46ZM13.21 12.37L12.2 11.51L16.2 7.98C16.61 7.63 17.1 7.57 17.34 7.84C17.59 8.12 17.47 8.61 17.06 8.97L13.21 12.37ZM12.97 11.51L13.21 11.71L16.75 8.6C16.97 8.41 17 8.21 16.98 8.18C16.94 8.16 16.75 8.18 16.54 8.37L12.97 11.51Z" fill="#040404"/>
</svg>
