<svg width="24" height="24" viewBox="0 0 24 24" fill="none" xmlns="http://www.w3.org/2000/svg">
<mask id="path-1-outside-1_1686_13143" maskUnits="userSpaceOnUse" x="6.33337" y="8" width="11" height="11" fill="black">
<rect fill="white" x="6.33337" y="8" width="11" height="11"/>
<path d="M11.1504 9.00092C11.0533 9.0188 10.9839 9.10136 10.9856 9.19647V10.0464C10.7244 10.1191 10.4649 10.2111 10.2247 10.3336L9.50828 9.64286C9.46992 9.60478 9.41742 9.58322 9.36236 9.58322C9.30745 9.58322 9.2548 9.60478 9.21659 9.64286L7.99913 10.8166C7.92101 10.8929 7.92101 11.0155 7.99913 11.0917L8.72192 11.7887C8.59567 12.0196 8.49278 12.2715 8.41763 12.5224H7.53633C7.42424 12.5224 7.33337 12.6098 7.33337 12.7179V14.283C7.33337 14.3911 7.42424 14.4787 7.53633 14.4787H8.41763C8.49264 14.7278 8.59652 14.9768 8.72192 15.2062L7.99913 15.9031C7.92101 15.9794 7.92101 16.1019 7.99913 16.1782L9.21659 17.3521C9.2548 17.3901 9.30745 17.4116 9.36236 17.4116C9.41742 17.4116 9.46993 17.3901 9.50828 17.3521L10.2247 16.6612C10.4651 16.7838 10.7241 16.8818 10.9856 16.9547V17.8044C10.9856 17.9125 11.0764 18 11.1885 18H12.8116C12.9237 18 13.0145 17.9125 13.0145 17.8044V16.9547C13.2759 16.8818 13.5349 16.7838 13.7754 16.6612L14.4918 17.3521C14.5302 17.3901 14.5827 17.4116 14.6377 17.4116C14.6926 17.4116 14.7453 17.3901 14.7835 17.3521L16.001 16.1782C16.0791 16.1019 16.0791 15.9794 16.001 15.9031L15.2782 15.2062C15.4036 14.9768 15.5074 14.7278 15.5825 14.4787H16.4638C16.5758 14.4787 16.6667 14.3911 16.6667 14.283V12.7179C16.6667 12.6098 16.5758 12.5224 16.4638 12.5224H15.5825C15.5073 12.2715 15.4044 12.0196 15.2782 11.7887L16.001 11.0917C16.0791 11.0155 16.0791 10.8929 16.001 10.8166L14.7835 9.64286C14.7453 9.60478 14.6926 9.58322 14.6377 9.58322C14.5827 9.58322 14.5302 9.60478 14.4918 9.64286L13.7754 10.3336C13.5352 10.2111 13.2757 10.1191 13.0145 10.0464V9.19647C13.0145 9.08853 12.9237 9.00092 12.8116 9.00092H11.1885C11.1758 8.99969 11.163 8.99969 11.1504 9.00092ZM11.3913 9.39215H12.6088V10.1746C12.6088 10.2639 12.6713 10.3419 12.7609 10.3642C13.0835 10.4417 13.456 10.5753 13.7247 10.731C13.8047 10.7766 13.9065 10.764 13.972 10.7004L14.6378 10.0585L15.5635 10.9572L14.8978 11.5992C14.8338 11.6637 14.8235 11.7618 14.8723 11.8376C15.0339 12.0966 15.1725 12.4497 15.2527 12.7607C15.2734 12.8496 15.3549 12.9129 15.4493 12.9136H16.261V14.0873H15.4493C15.3567 14.0873 15.2759 14.1476 15.2527 14.2341C15.1725 14.5451 15.0339 14.8982 14.8723 15.1572C14.8235 15.2331 14.8338 15.331 14.8978 15.3957L15.5635 16.0437L14.6378 16.9363L13.972 16.2943C13.9065 16.2307 13.8047 16.2182 13.7247 16.2638C13.456 16.4195 13.0835 16.5594 12.7609 16.6367C12.6713 16.6591 12.6088 16.737 12.6088 16.8263V17.6087H11.3913V16.8263C11.3913 16.737 11.3288 16.6591 11.2392 16.6367C10.9166 16.5594 10.5441 16.4195 10.2753 16.2638C10.1954 16.2182 10.0936 16.2307 10.0281 16.2943L9.36233 16.9363L8.43657 16.0437L9.10233 15.3957C9.1663 15.331 9.17663 15.2331 9.12781 15.1572C8.96618 14.8982 8.82762 14.5451 8.74737 14.2341C8.72416 14.1476 8.64335 14.0873 8.55079 14.0873H7.73913V12.9136H8.55079C8.64519 12.9129 8.72671 12.8496 8.74737 12.7607C8.82762 12.4497 8.96618 12.0966 9.12781 11.8376C9.17663 11.7618 9.1663 11.6637 9.10233 11.5992L8.43657 10.9572L9.36233 10.0585L10.0281 10.7004C10.0936 10.764 10.1954 10.7766 10.2753 10.731C10.5441 10.5753 10.9166 10.4417 11.2392 10.3642C11.3288 10.3419 11.3913 10.2639 11.3913 10.1746V9.39215ZM12 11.3485C10.7699 11.3485 9.7681 12.3142 9.7681 13.5005C9.7681 14.6866 10.7698 15.6524 12 15.6524C13.2303 15.6524 14.232 14.6866 14.232 13.5005C14.232 12.3142 13.2303 11.3485 12 11.3485ZM12 11.7397C13.011 11.7397 13.826 12.5257 13.826 13.5005C13.826 14.4751 13.011 15.2611 12 15.2611C10.9891 15.2611 10.174 14.4751 10.174 13.5005C10.174 12.5257 10.9891 11.7397 12 11.7397Z"/>
</mask>
<path d="M11.1504 9.00092C11.0533 9.0188 10.9839 9.10136 10.9856 9.19647V10.0464C10.7244 10.1191 10.4649 10.2111 10.2247 10.3336L9.50828 9.64286C9.46992 9.60478 9.41742 9.58322 9.36236 9.58322C9.30745 9.58322 9.2548 9.60478 9.21659 9.64286L7.99913 10.8166C7.92101 10.8929 7.92101 11.0155 7.99913 11.0917L8.72192 11.7887C8.59567 12.0196 8.49278 12.2715 8.41763 12.5224H7.53633C7.42424 12.5224 7.33337 12.6098 7.33337 12.7179V14.283C7.33337 14.3911 7.42424 14.4787 7.53633 14.4787H8.41763C8.49264 14.7278 8.59652 14.9768 8.72192 15.2062L7.99913 15.9031C7.92101 15.9794 7.92101 16.1019 7.99913 16.1782L9.21659 17.3521C9.2548 17.3901 9.30745 17.4116 9.36236 17.4116C9.41742 17.4116 9.46993 17.3901 9.50828 17.3521L10.2247 16.6612C10.4651 16.7838 10.7241 16.8818 10.9856 16.9547V17.8044C10.9856 17.9125 11.0764 18 11.1885 18H12.8116C12.9237 18 13.0145 17.9125 13.0145 17.8044V16.9547C13.2759 16.8818 13.5349 16.7838 13.7754 16.6612L14.4918 17.3521C14.5302 17.3901 14.5827 17.4116 14.6377 17.4116C14.6926 17.4116 14.7453 17.3901 14.7835 17.3521L16.001 16.1782C16.0791 16.1019 16.0791 15.9794 16.001 15.9031L15.2782 15.2062C15.4036 14.9768 15.5074 14.7278 15.5825 14.4787H16.4638C16.5758 14.4787 16.6667 14.3911 16.6667 14.283V12.7179C16.6667 12.6098 16.5758 12.5224 16.4638 12.5224H15.5825C15.5073 12.2715 15.4044 12.0196 15.2782 11.7887L16.001 11.0917C16.0791 11.0155 16.0791 10.8929 16.001 10.8166L14.7835 9.64286C14.7453 9.60478 14.6926 9.58322 14.6377 9.58322C14.5827 9.58322 14.5302 9.60478 14.4918 9.64286L13.7754 10.3336C13.5352 10.2111 13.2757 10.1191 13.0145 10.0464V9.19647C13.0145 9.08853 12.9237 9.00092 12.8116 9.00092H11.1885C11.1758 8.99969 11.163 8.99969 11.1504 9.00092ZM11.3913 9.39215H12.6088V10.1746C12.6088 10.2639 12.6713 10.3419 12.7609 10.3642C13.0835 10.4417 13.456 10.5753 13.7247 10.731C13.8047 10.7766 13.9065 10.764 13.972 10.7004L14.6378 10.0585L15.5635 10.9572L14.8978 11.5992C14.8338 11.6637 14.8235 11.7618 14.8723 11.8376C15.0339 12.0966 15.1725 12.4497 15.2527 12.7607C15.2734 12.8496 15.3549 12.9129 15.4493 12.9136H16.261V14.0873H15.4493C15.3567 14.0873 15.2759 14.1476 15.2527 14.2341C15.1725 14.5451 15.0339 14.8982 14.8723 15.1572C14.8235 15.2331 14.8338 15.331 14.8978 15.3957L15.5635 16.0437L14.6378 16.9363L13.972 16.2943C13.9065 16.2307 13.8047 16.2182 13.7247 16.2638C13.456 16.4195 13.0835 16.5594 12.7609 16.6367C12.6713 16.6591 12.6088 16.737 12.6088 16.8263V17.6087H11.3913V16.8263C11.3913 16.737 11.3288 16.6591 11.2392 16.6367C10.9166 16.5594 10.5441 16.4195 10.2753 16.2638C10.1954 16.2182 10.0936 16.2307 10.0281 16.2943L9.36233 16.9363L8.43657 16.0437L9.10233 15.3957C9.1663 15.331 9.17663 15.2331 9.12781 15.1572C8.96618 14.8982 8.82762 14.5451 8.74737 14.2341C8.72416 14.1476 8.64335 14.0873 8.55079 14.0873H7.73913V12.9136H8.55079C8.64519 12.9129 8.72671 12.8496 8.74737 12.7607C8.82762 12.4497 8.96618 12.0966 9.12781 11.8376C9.17663 11.7618 9.1663 11.6637 9.10233 11.5992L8.43657 10.9572L9.36233 10.0585L10.0281 10.7004C10.0936 10.764 10.1954 10.7766 10.2753 10.731C10.5441 10.5753 10.9166 10.4417 11.2392 10.3642C11.3288 10.3419 11.3913 10.2639 11.3913 10.1746V9.39215ZM12 11.3485C10.7699 11.3485 9.7681 12.3142 9.7681 13.5005C9.7681 14.6866 10.7698 15.6524 12 15.6524C13.2303 15.6524 14.232 14.6866 14.232 13.5005C14.232 12.3142 13.2303 11.3485 12 11.3485ZM12 11.7397C13.011 11.7397 13.826 12.5257 13.826 13.5005C13.826 14.4751 13.011 15.2611 12 15.2611C10.9891 15.2611 10.174 14.4751 10.174 13.5005C10.174 12.5257 10.9891 11.7397 12 11.7397Z" fill="#303030"/>
<path d="M11.1504 9.00092C11.0533 9.0188 10.9839 9.10136 10.9856 9.19647V10.0464C10.7244 10.1191 10.4649 10.2111 10.2247 10.3336L9.50828 9.64286C9.46992 9.60478 9.41742 9.58322 9.36236 9.58322C9.30745 9.58322 9.2548 9.60478 9.21659 9.64286L7.99913 10.8166C7.92101 10.8929 7.92101 11.0155 7.99913 11.0917L8.72192 11.7887C8.59567 12.0196 8.49278 12.2715 8.41763 12.5224H7.53633C7.42424 12.5224 7.33337 12.6098 7.33337 12.7179V14.283C7.33337 14.3911 7.42424 14.4787 7.53633 14.4787H8.41763C8.49264 14.7278 8.59652 14.9768 8.72192 15.2062L7.99913 15.9031C7.92101 15.9794 7.92101 16.1019 7.99913 16.1782L9.21659 17.3521C9.2548 17.3901 9.30745 17.4116 9.36236 17.4116C9.41742 17.4116 9.46993 17.3901 9.50828 17.3521L10.2247 16.6612C10.4651 16.7838 10.7241 16.8818 10.9856 16.9547V17.8044C10.9856 17.9125 11.0764 18 11.1885 18H12.8116C12.9237 18 13.0145 17.9125 13.0145 17.8044V16.9547C13.2759 16.8818 13.5349 16.7838 13.7754 16.6612L14.4918 17.3521C14.5302 17.3901 14.5827 17.4116 14.6377 17.4116C14.6926 17.4116 14.7453 17.3901 14.7835 17.3521L16.001 16.1782C16.0791 16.1019 16.0791 15.9794 16.001 15.9031L15.2782 15.2062C15.4036 14.9768 15.5074 14.7278 15.5825 14.4787H16.4638C16.5758 14.4787 16.6667 14.3911 16.6667 14.283V12.7179C16.6667 12.6098 16.5758 12.5224 16.4638 12.5224H15.5825C15.5073 12.2715 15.4044 12.0196 15.2782 11.7887L16.001 11.0917C16.0791 11.0155 16.0791 10.8929 16.001 10.8166L14.7835 9.64286C14.7453 9.60478 14.6926 9.58322 14.6377 9.58322C14.5827 9.58322 14.5302 9.60478 14.4918 9.64286L13.7754 10.3336C13.5352 10.2111 13.2757 10.1191 13.0145 10.0464V9.19647C13.0145 9.08853 12.9237 9.00092 12.8116 9.00092H11.1885C11.1758 8.99969 11.163 8.99969 11.1504 9.00092ZM11.3913 9.39215H12.6088V10.1746C12.6088 10.2639 12.6713 10.3419 12.7609 10.3642C13.0835 10.4417 13.456 10.5753 13.7247 10.731C13.8047 10.7766 13.9065 10.764 13.972 10.7004L14.6378 10.0585L15.5635 10.9572L14.8978 11.5992C14.8338 11.6637 14.8235 11.7618 14.8723 11.8376C15.0339 12.0966 15.1725 12.4497 15.2527 12.7607C15.2734 12.8496 15.3549 12.9129 15.4493 12.9136H16.261V14.0873H15.4493C15.3567 14.0873 15.2759 14.1476 15.2527 14.2341C15.1725 14.5451 15.0339 14.8982 14.8723 15.1572C14.8235 15.2331 14.8338 15.331 14.8978 15.3957L15.5635 16.0437L14.6378 16.9363L13.972 16.2943C13.9065 16.2307 13.8047 16.2182 13.7247 16.2638C13.456 16.4195 13.0835 16.5594 12.7609 16.6367C12.6713 16.6591 12.6088 16.737 12.6088 16.8263V17.6087H11.3913V16.8263C11.3913 16.737 11.3288 16.6591 11.2392 16.6367C10.9166 16.5594 10.5441 16.4195 10.2753 16.2638C10.1954 16.2182 10.0936 16.2307 10.0281 16.2943L9.36233 16.9363L8.43657 16.0437L9.10233 15.3957C9.1663 15.331 9.17663 15.2331 9.12781 15.1572C8.96618 14.8982 8.82762 14.5451 8.74737 14.2341C8.72416 14.1476 8.64335 14.0873 8.55079 14.0873H7.73913V12.9136H8.55079C8.64519 12.9129 8.72671 12.8496 8.74737 12.7607C8.82762 12.4497 8.96618 12.0966 9.12781 11.8376C9.17663 11.7618 9.1663 11.6637 9.10233 11.5992L8.43657 10.9572L9.36233 10.0585L10.0281 10.7004C10.0936 10.764 10.1954 10.7766 10.2753 10.731C10.5441 10.5753 10.9166 10.4417 11.2392 10.3642C11.3288 10.3419 11.3913 10.2639 11.3913 10.1746V9.39215ZM12 11.3485C10.7699 11.3485 9.7681 12.3142 9.7681 13.5005C9.7681 14.6866 10.7698 15.6524 12 15.6524C13.2303 15.6524 14.232 14.6866 14.232 13.5005C14.232 12.3142 13.2303 11.3485 12 11.3485ZM12 11.7397C13.011 11.7397 13.826 12.5257 13.826 13.5005C13.826 14.4751 13.011 15.2611 12 15.2611C10.9891 15.2611 10.174 14.4751 10.174 13.5005C10.174 12.5257 10.9891 11.7397 12 11.7397Z" stroke="#303030" stroke-width="0.4" mask="url(#path-1-outside-1_1686_13143)"/>
<path d="M6.44124 3.23339C5.63224 3.23339 4.9829 3.85103 4.92063 4.62859C4.91969 4.6314 4.9188 4.63422 4.91794 4.63705C4.90526 4.67185 4.89924 4.70856 4.90008 4.74545V20.465C4.90008 20.6335 5.03883 20.7666 5.20588 20.7666H18.7942C18.9612 20.7666 19.1 20.6335 19.1 20.465V5.9535C19.1 5.78501 18.9613 5.65189 18.7942 5.65189H18.2765V3.53492C18.2765 3.36635 18.1375 3.23331 17.9706 3.23331L6.44124 3.23339ZM6.44124 3.83645H17.6648V5.65195H6.44124C5.92059 5.65195 5.51182 5.24876 5.51182 4.7442C5.51182 4.23978 5.9206 3.83645 6.44124 3.83645ZM5.51182 20.1636V5.94084C5.76926 6.13602 6.0895 6.25515 6.44124 6.25515H18.4884V20.1636H5.51182Z" fill="#303030" stroke="#303030" stroke-width="0.2"/>
</svg>
