<svg width="24" height="24" viewBox="0 0 24 24" fill="none" xmlns="http://www.w3.org/2000/svg">
<g clip-path="url(#clip0_44897_98529)">
<path d="M7.01562 19.551C7.01562 20.2007 7.27288 20.8236 7.73075 21.283C8.18881 21.7423 8.80977 22.0003 9.45749 22.0003C10.105 22.0003 10.7262 21.7423 11.184 21.283C11.6421 20.8235 11.8993 20.2007 11.8993 19.551C11.8993 18.9014 11.6421 18.2784 11.184 17.8191C10.7262 17.3596 10.105 17.1016 9.45749 17.1016C8.81017 17.1023 8.1894 17.3606 7.7317 17.8198C7.27384 18.2789 7.01638 18.9016 7.01562 19.551ZM10.7793 19.551C10.7793 19.9027 10.6401 20.2398 10.3922 20.4885C10.1443 20.7371 9.80811 20.8768 9.45753 20.8768C9.1069 20.8768 8.77075 20.7371 8.52287 20.4885C8.275 20.2398 8.13572 19.9026 8.13572 19.551C8.13572 19.1994 8.275 18.8621 8.52287 18.6134C8.77075 18.3648 9.10694 18.2253 9.45753 18.2253C9.80815 18.2253 10.1443 18.3648 10.3922 18.6134C10.6401 18.8621 10.7793 19.1995 10.7793 19.551Z" fill="#303030"/>
<path d="M17.3989 17.1016C16.7512 17.1016 16.1302 17.3596 15.6722 17.8191C15.2143 18.2784 14.957 18.9014 14.957 19.551C14.957 20.2007 15.2143 20.8236 15.6722 21.283C16.1302 21.7423 16.7512 22.0003 17.3989 22.0003C18.0464 22.0003 18.6676 21.7423 19.1254 21.283C19.5835 20.8235 19.8408 20.2007 19.8408 19.551C19.84 18.9016 19.5825 18.279 19.1247 17.8198C18.667 17.3606 18.0463 17.1023 17.3989 17.1016ZM17.3989 20.8769C17.0483 20.8769 16.7121 20.7372 16.4642 20.4885C16.2164 20.2399 16.0771 19.9027 16.0771 19.551C16.0771 19.1995 16.2164 18.8621 16.4642 18.6135C16.7121 18.3648 17.0483 18.2253 17.3989 18.2253C17.7493 18.2253 18.0857 18.3648 18.3335 18.6135C18.5812 18.8621 18.7205 19.1995 18.7205 19.551C18.7199 19.9021 18.5802 20.2387 18.3324 20.4868C18.0847 20.7346 17.7489 20.8739 17.3989 20.8739L17.3989 20.8769Z" fill="#303030"/>
<path d="M2.00818 2.46651C1.95583 2.77197 2.16015 3.06235 2.46468 3.11527L3.21241 3.24733C3.82497 3.35215 4.39123 3.64155 4.83603 4.07712C5.2808 4.51269 5.58281 5.07364 5.70172 5.68554L7.18018 13.1066L7.18037 13.1065C7.35774 13.9983 7.83784 14.8009 8.53892 15.3775C9.23999 15.9544 10.1186 16.2694 11.0251 16.2694H16.8863C17.7735 16.2724 18.6353 15.9722 19.3295 15.4181C20.0239 14.8641 20.5093 14.0894 20.706 13.2216L21.9858 7.65691L21.9856 7.65711C22.0241 7.49017 21.9844 7.31481 21.8782 7.18079C21.7717 7.04677 21.6104 6.96878 21.4397 6.96878H7.09913L6.79948 5.46595C6.63697 4.63125 6.22482 3.86596 5.61811 3.27187C5.01139 2.67778 4.23866 2.28298 3.40262 2.14032L2.65489 2.00826H2.65509C2.35036 1.95556 2.06087 2.16051 2.00812 2.46616L2.00818 2.46651ZM20.7367 8.08438L19.6167 12.9606C19.4743 13.5792 19.127 14.1314 18.6318 14.5266C18.1364 14.922 17.5221 15.1373 16.8892 15.1375H11.0251C10.3791 15.1383 9.75271 14.9151 9.25205 14.5054C8.7512 14.0959 8.40721 13.5253 8.27795 12.8905L7.32315 8.0899L20.7367 8.08438Z" fill="#303030"/>
</g>
<defs>
<clipPath id="clip0_44897_98529">
<rect width="24" height="24" fill="white"/>
</clipPath>
</defs>
</svg>
