<svg width="24" height="25" viewBox="0 0 24 25" fill="none" xmlns="http://www.w3.org/2000/svg">
<g id="Edit icon">
<g id="Group">
<path id="Vector" d="M5.88792 20.4991H17.2154C17.7162 20.4991 18.1963 20.2999 18.5505 19.9456C18.9045 19.591 19.1034 19.1104 19.1034 18.609V12.309C19.1034 12.0838 18.9834 11.8759 18.7887 11.7634C18.594 11.6509 18.3541 11.6509 18.1594 11.7634C17.9647 11.8759 17.8447 12.0838 17.8447 12.309V18.609C17.8447 18.7761 17.7784 18.9364 17.6604 19.0545C17.5425 19.1727 17.3823 19.239 17.2154 19.239H5.88792C5.72104 19.239 5.5609 19.1727 5.44291 19.0545C5.32492 18.9364 5.25861 18.7761 5.25861 18.609V7.26893C5.25861 7.10186 5.32492 6.94155 5.44291 6.82342C5.5609 6.7053 5.72104 6.63892 5.88792 6.63892H12.181C12.4059 6.63892 12.6136 6.51883 12.726 6.32392C12.8384 6.12901 12.8384 5.88882 12.726 5.69391C12.6136 5.499 12.4059 5.37891 12.181 5.37891H5.88792C5.38714 5.37891 4.90703 5.57803 4.55289 5.93241C4.1989 6.28693 4 6.76758 4 7.26893V18.609C4 19.1104 4.1989 19.591 4.55289 19.9456C4.90702 20.2999 5.38714 20.4991 5.88792 20.4991Z" fill="#009FDA"/>
<path id="Vector_2" d="M8.13672 13.0544V15.7276C8.13672 15.8946 8.20302 16.055 8.32102 16.1731C8.43901 16.2912 8.59915 16.3576 8.76603 16.3576H11.4362C11.6031 16.3576 11.7631 16.2912 11.8811 16.1729L19.4461 8.59954C19.8002 8.24516 19.9991 7.76437 19.9991 7.26303C19.9991 6.76169 19.8002 6.2809 19.4461 5.92651L18.5562 5.03565C18.1967 4.69182 17.7187 4.5 17.2215 4.5C16.7243 4.5 16.2463 4.69181 15.8867 5.03565L8.32138 12.6094C8.20352 12.7274 8.13708 12.8874 8.13694 13.0542L8.13672 13.0544ZM16.7769 5.92669C16.8967 5.81208 17.056 5.74824 17.2216 5.74824C17.3871 5.74824 17.5464 5.81208 17.6662 5.92669L18.5561 6.81756L18.556 6.81741C18.6742 6.93568 18.7405 7.096 18.7405 7.26321C18.7405 7.43041 18.6742 7.59073 18.556 7.709L17.6661 8.59986L16.7738 7.71084L15.8859 6.81813L16.7769 5.92669ZM9.39533 13.3179L14.9962 7.71087L16.774 9.49065L11.1731 15.0977H9.39533V13.3179Z" fill="#009FDA"/>
</g>
</g>
</svg>
