<svg width="80" height="80" viewBox="0 0 80 80" fill="none" xmlns="http://www.w3.org/2000/svg">
<rect width="80" height="80" fill="white"/>
<g clip-path="url(#clip0_57609_19758)">
<path d="M7 7.00093C10.6584 7.00093 14.3167 7.00093 18.0859 7.00093C18.0859 7.68156 18.0859 8.36218 18.0859 9.06343C19.8372 9.1176 21.0535 8.52074 22.5819 7.70321C23.7695 7.15243 24.759 6.925 26.0709 6.93421C26.2315 6.93331 26.392 6.93241 26.5575 6.93148C26.9938 6.92961 27.43 6.93003 27.8663 6.93167C28.3261 6.93299 28.786 6.93176 29.2458 6.93096C30.0181 6.93002 30.7905 6.93125 31.5628 6.93371C32.4508 6.93651 33.3387 6.93561 34.2267 6.93277C34.9937 6.93041 35.7606 6.93011 36.5275 6.93145C36.9835 6.93225 37.4395 6.93238 37.8956 6.93066C40.1468 6.9233 42.184 6.92986 44.2056 8.03218C44.3282 8.09225 44.3282 8.09225 44.4533 8.15354C45.7799 8.85847 46.813 9.9892 47.6784 11.192C49.2533 13.3621 51.0453 15.522 53.8097 15.9812C55.0061 16.1481 56.2089 16.1861 57.4154 16.1946C57.5693 16.1958 57.5693 16.1958 57.7262 16.1971C59.4954 16.2061 61.2576 16.1137 63.0259 16.0405C67.9631 15.9049 67.9631 15.9049 73 15.7666C73 25.2528 73 34.739 73 44.5127C57.7285 44.5127 42.457 44.5127 26.7227 44.5127C26.7227 39.8759 26.7227 35.2391 26.7227 30.4619C26.042 30.3768 25.3614 30.2917 24.6602 30.2041C23.1565 29.855 21.6614 29.3 20.4093 28.3732C19.9388 28.0936 19.537 28.0564 19.0044 28.0449C18.7013 28.0342 18.3982 28.0236 18.0859 28.0127C18.0859 29.0761 18.0859 30.1396 18.0859 31.2353C14.4276 31.2353 10.7692 31.2353 7 31.2353C7 23.238 7 15.2406 7 7.00093ZM9.32031 9.32125C9.32031 15.7872 9.32031 22.2531 9.32031 28.915C11.4473 28.915 13.5742 28.915 15.7656 28.915C15.7656 22.4491 15.7656 15.9831 15.7656 9.32125C13.6387 9.32125 11.5117 9.32125 9.32031 9.32125ZM22.1141 10.5774C20.7883 11.3176 19.6713 11.2905 18.0859 11.3837C18.0859 16.1056 18.0859 20.8274 18.0859 25.6923C18.9793 25.7349 19.8726 25.7774 20.793 25.8212C21.4615 26.1939 21.9979 26.5331 22.5977 26.9814C23.9072 27.7109 25.2433 27.9772 26.7227 28.1416C26.7227 26.3975 26.7227 24.6534 26.7227 22.8564C26.0846 22.5161 25.4465 22.1758 24.7891 21.8252C24.5338 21.6125 24.2786 21.3998 24.0156 21.1806C24.1884 20.5664 24.5616 20.1875 24.9875 19.7329C25.2031 19.521 25.2031 19.521 25.1758 19.247C25.2617 19.314 25.3476 19.381 25.4361 19.45C27.0944 20.7047 28.5163 21.1963 30.5898 21.0517C31.7083 20.8317 32.5299 20.3124 33.4258 19.6337C33.6831 19.4611 33.9408 19.2892 34.1992 19.1181C34.3217 19.2428 34.3217 19.2428 34.4468 19.37C35.2188 20.155 35.9924 20.9383 36.7677 21.72C37.1662 22.1219 37.5641 22.5243 37.9607 22.9282C38.3437 23.3183 38.7283 23.7067 39.1141 24.0941C39.2606 24.2419 39.4066 24.3901 39.5519 24.539C40.6696 25.748 40.6696 25.748 42.1964 26.2177C42.833 26.1756 43.2613 25.9754 43.7383 25.5634C44.1934 24.9645 44.3635 24.4711 44.3134 23.7141C44.0869 22.4112 42.6677 21.3499 41.7694 20.4631C41.6028 20.2972 41.4363 20.1312 41.2699 19.9652C40.8346 19.5314 40.3982 19.0987 39.9615 18.6664C39.5149 18.2237 39.0694 17.78 38.6238 17.3363C37.7516 16.4682 36.8781 15.6014 36.0039 14.7353C36.1249 14.5927 36.2461 14.4502 36.3675 14.3078C36.4349 14.2284 36.5024 14.1491 36.572 14.0673C36.842 13.7592 37.1279 13.4737 37.4219 13.1884C37.8683 13.3723 38.0638 13.5801 38.3362 13.9739C39.0543 14.9067 39.7807 15.7494 41.0008 15.9303C42.1572 16.0454 43.3224 15.986 44.4805 15.9259C44.9937 15.9018 45.5072 15.8915 46.0208 15.8799C47.0224 15.8552 48.0227 15.8158 49.0234 15.7666C48.2515 14.8503 47.4254 13.9972 46.5835 13.1455C46.4064 12.9657 46.2302 12.7851 46.0549 12.6037C44.2239 10.7103 42.337 9.29865 39.5835 9.24134C39.4447 9.24097 39.3059 9.24059 39.1629 9.24021C39.0115 9.23785 38.8602 9.2355 38.7042 9.23308C38.2086 9.22626 37.7131 9.22333 37.2174 9.22104C37.0446 9.2198 36.8718 9.21849 36.6989 9.21711C35.7928 9.21005 34.8867 9.20604 33.9806 9.20446C33.1448 9.2029 32.3093 9.19408 31.4736 9.18193C30.7491 9.17178 30.0247 9.16729 29.3002 9.16686C28.8705 9.16649 28.4413 9.1633 28.0116 9.15556C25.7348 9.11768 24.0988 9.44223 22.1141 10.5774ZM42.707 18.0869C42.9623 18.3846 43.2175 18.6824 43.4805 18.9892C43.5678 19.1005 43.6552 19.2118 43.7452 19.3265C44.2749 19.9457 44.6622 20.2221 45.4848 20.2889C45.8153 20.2922 46.1459 20.2892 46.4763 20.2811C46.6594 20.2808 46.8424 20.2809 47.0255 20.2816C47.5193 20.2819 48.0128 20.2751 48.5066 20.267C49.0237 20.2597 49.5408 20.2591 50.058 20.2577C51.036 20.2541 52.0137 20.2446 52.9916 20.2329C54.1054 20.2199 55.2193 20.2136 56.3332 20.2078C58.6233 20.1956 60.9132 20.1753 63.2031 20.1494C63.2002 20.2886 63.1973 20.4279 63.1943 20.5714C63.192 20.7572 63.1897 20.943 63.1875 21.1288C63.1854 21.2202 63.1833 21.3116 63.1812 21.4058C63.1706 22.5956 63.5763 23.5185 64.3794 24.3952C65.6513 25.5633 66.9397 25.6923 68.6172 25.6923C68.6172 28.6275 68.6172 31.5627 68.6172 34.5869C67.9791 34.5869 67.341 34.5869 66.6836 34.5869C65.4345 34.8591 64.4702 35.5851 63.7469 36.6398C63.089 37.7595 63.2031 38.6201 63.2031 40.0009C54.4401 40.0009 45.677 40.0009 36.6484 40.0009C36.6484 39.4479 36.6484 38.8949 36.6484 38.3252C36.4612 37.5106 36.2581 36.9298 35.7461 36.2627C35.677 36.1563 35.6078 36.05 35.5366 35.9404C34.8781 35.2472 34.064 34.8855 33.168 34.5869C32.4873 34.5869 31.8067 34.5869 31.1055 34.5869C31.1055 31.6517 31.1055 28.7165 31.1055 25.6923C31.5309 25.6923 31.9562 25.6923 32.3945 25.6923C33.7974 25.5479 34.7367 24.9722 35.7461 24.0166C35.4915 23.7123 35.2344 23.4121 34.9727 23.1142C34.859 22.9829 34.859 22.9829 34.743 22.8488C34.3307 22.3655 34.3307 22.3655 33.7561 22.1877C33.4913 22.3104 33.2319 22.4447 32.9746 22.5825C31.7433 23.2178 30.4052 23.2672 29.043 23.372C29.043 29.5827 29.043 35.7934 29.043 42.1923C42.7831 42.1923 56.5232 42.1923 70.6797 42.1923C70.6797 34.2375 70.6797 26.2827 70.6797 18.0869C61.4487 18.0869 52.2177 18.0869 42.707 18.0869ZM46.4453 22.4697C46.4453 23.3205 46.4453 24.1712 46.4453 25.0478C46.4028 25.303 46.3602 25.5583 46.3164 25.8212C46.4239 25.7591 46.5314 25.697 46.6422 25.6329C48.2927 24.7065 49.8071 24.3457 51.6902 24.8625C53.1431 25.3609 54.2028 26.263 54.9209 27.6098C55.6491 29.1622 55.6539 30.7834 55.082 32.3955C54.4289 33.8014 53.4354 34.7972 51.9883 35.3603C50.6366 35.82 48.9737 35.8421 47.6553 35.2646C46.1391 34.4656 45.2473 33.4942 44.6406 31.8798C44.4762 31.3125 44.488 30.7666 44.4875 30.1799C44.486 30.0751 44.4844 29.9704 44.4828 29.8624C44.481 29.1285 44.5814 28.4638 44.7695 27.7548C44.4035 27.874 44.0428 27.9926 43.6889 28.1446C42.5275 28.578 41.2479 28.429 40.1289 27.9401C39.1341 27.4025 38.3334 26.4956 37.5508 25.6923C37.1203 25.8831 36.8089 26.1332 36.4551 26.4416C35.5431 27.185 34.5303 27.5156 33.4258 27.8837C33.4258 29.3726 33.4258 30.8615 33.4258 32.3955C33.9788 32.5656 34.5318 32.7358 35.1016 32.9111C37.0171 33.9559 38.0227 35.2145 38.7109 37.2939C38.7535 37.4215 38.796 37.5491 38.8398 37.6806C46.1566 37.6806 53.4733 37.6806 61.0117 37.6806C61.1819 37.1276 61.352 36.5746 61.5273 36.0048C62.3998 34.3996 63.5519 33.3217 65.2656 32.6533C65.6059 32.5682 65.9463 32.4831 66.2969 32.3955C66.2969 30.9066 66.2969 29.4177 66.2969 27.8837C65.4674 27.5647 65.4674 27.5647 64.6211 27.2392C62.5168 26.137 61.6966 24.6397 60.8828 22.4697C56.1184 22.4697 51.3541 22.4697 46.4453 22.4697ZM47.3477 28.0127C46.7216 28.9019 46.5288 29.7743 46.7031 30.8486C47.0548 31.9486 47.6873 32.5801 48.6609 33.1528C49.5921 33.4276 50.4856 33.4438 51.384 33.0481C52.2084 32.5794 52.7242 31.9055 53.0759 31.0339C53.2637 29.8865 53.1345 28.9692 52.443 28.0061C51.8298 27.3292 51.0703 26.9554 50.1705 26.8082C49.0732 26.7557 48.056 27.1812 47.3477 28.0127Z" fill="#EE2326"/>
<path d="M61.9142 50.957C65.5725 50.957 69.2309 50.957 73.0001 50.957C73.0001 58.2312 73.0001 65.5054 73.0001 73C69.3418 73 65.6834 73 61.9142 73C61.8717 72.5321 61.8291 72.0641 61.7853 71.582C61.637 71.6396 61.637 71.6396 61.4858 71.6983C61.0379 71.872 60.5898 72.0453 60.1417 72.2185C59.9862 72.2789 59.8307 72.3393 59.6704 72.4015C59.5209 72.4593 59.3713 72.517 59.2172 72.5765C59.0795 72.6299 58.9418 72.6832 58.7999 72.7381C58.2409 72.9411 57.7823 73.0164 57.1854 73.019C57.036 73.0199 56.8866 73.0208 56.7326 73.0218C56.5691 73.0221 56.4057 73.0225 56.2372 73.0228C56.0629 73.0236 55.8886 73.0245 55.7143 73.0254C55.1422 73.0281 54.5701 73.0294 53.998 73.0307C53.8006 73.0312 53.6032 73.0318 53.4058 73.0323C52.4778 73.0348 51.5498 73.0366 50.6218 73.0377C49.5531 73.0389 48.4844 73.0423 47.4157 73.0475C46.5882 73.0514 45.7606 73.0533 44.9331 73.0538C44.4396 73.0541 43.9461 73.0552 43.4526 73.0585C42.9876 73.0615 42.5226 73.062 42.0576 73.0607C41.8077 73.0606 41.5578 73.063 41.3079 73.0656C40.0336 73.0581 38.9719 72.7707 37.8837 72.0972C37.7045 71.9878 37.7045 71.9878 37.5215 71.8762C37.3956 71.7977 37.2697 71.7193 37.14 71.6384C36.8558 71.4646 36.5714 71.2909 36.287 71.1173C36.2127 71.0717 36.1385 71.0262 36.0619 70.9792C35.2411 70.4763 34.4122 69.987 33.5834 69.4973C32.1194 68.6319 30.6617 67.7569 29.2096 66.8716C27.9992 66.1339 26.7825 65.4075 25.5626 64.6855C24.0713 63.8028 22.5856 62.9114 21.1062 62.0088C20.407 61.5824 19.7065 61.1592 19 60.7451C17.6111 59.9278 16.5931 59.1429 16.1525 57.5312C16.009 56.0304 16.09 54.6855 17.0619 53.4586C17.8761 52.5908 18.7568 52.0386 19.9602 51.9576C20.1358 51.9536 20.3114 51.9505 20.4869 51.948C20.5722 51.9443 20.6574 51.9405 20.7453 51.9367C22.0221 51.9207 23.1436 52.6305 24.2413 53.2129C24.3699 53.2805 24.4985 53.3482 24.6309 53.4179C25.731 53.9988 26.8233 54.5937 27.9142 55.1918C29.9148 56.2879 31.9271 57.3632 33.9415 58.4336C33.9751 58.3179 34.0087 58.2023 34.0432 58.0831C34.4375 57.0148 35.2782 56.4067 36.273 55.9297C37.3734 55.4622 38.5599 55.2018 39.7131 54.8987C39.9985 54.8225 40.2839 54.7462 40.5692 54.6698C41.1651 54.5106 41.7612 54.3525 42.3576 54.1954C43.1177 53.995 43.8771 53.7922 44.6363 53.5886C45.2249 53.431 45.8138 53.2744 46.4027 53.1181C46.6827 53.0438 46.9625 52.9692 47.2423 52.8943C49.1065 52.3962 50.9129 51.9438 52.856 51.954C52.9645 51.9538 53.0731 51.9535 53.1849 51.9533C53.4109 51.9531 53.6369 51.9536 53.8629 51.9547C54.2048 51.9561 54.5466 51.9547 54.8885 51.953C57.7405 51.9504 57.7405 51.9504 58.901 52.5684C59.0899 52.6686 59.0899 52.6686 59.2827 52.7708C60.1676 53.2709 61.0413 53.7877 61.9142 54.3086C61.9142 53.2026 61.9142 52.0966 61.9142 50.957ZM64.2345 53.2773C64.2345 59.0201 64.2345 64.7629 64.2345 70.6797C66.3615 70.6797 68.4884 70.6797 70.6798 70.6797C70.6798 64.9369 70.6798 59.1941 70.6798 53.2773C68.5529 53.2773 66.4259 53.2773 64.2345 53.2773ZM18.6017 55.4688C18.4479 55.7764 18.4425 55.9875 18.4325 56.3308C18.4277 56.4377 18.4229 56.5445 18.4179 56.6546C18.5215 57.3363 18.839 57.7985 19.365 58.2191C19.5809 58.3492 19.5809 58.3492 19.8011 58.4819C19.8801 58.5303 19.9591 58.5787 20.0405 58.6285C20.2901 58.7806 20.5414 58.9295 20.7931 59.0781C20.9517 59.1735 21.1102 59.269 21.2686 59.3646C21.6729 59.6077 22.0789 59.8478 22.4855 60.0869C22.9368 60.3524 23.3874 60.6191 23.838 60.8858C23.9292 60.9398 24.0204 60.9938 24.1143 61.0494C24.9962 61.5722 25.8719 62.1049 26.747 62.6392C28.0333 63.4242 29.3289 64.192 30.6308 64.951C31.8798 65.6795 33.1187 66.4232 34.3532 67.1761C35.6943 67.9941 37.0435 68.7974 38.3985 69.5922C38.8433 69.8557 39.2844 70.1252 39.7251 70.3953C40.181 70.653 40.5449 70.6974 41.0591 70.7047C41.1985 70.707 41.3378 70.7092 41.4814 70.7115C41.6345 70.7132 41.7876 70.715 41.9452 70.7168C42.1065 70.7191 42.2678 70.7214 42.4339 70.7238C43.9329 70.7438 45.432 70.7552 46.931 70.7637C48.0349 70.7702 49.1386 70.7811 50.2424 70.7984C51.0226 70.8101 51.8027 70.8162 52.5829 70.8183C53.0464 70.8198 53.5095 70.8235 53.9729 70.8335C56.5611 70.8872 58.5742 70.4726 60.9184 69.4189C61.2474 69.2717 61.5787 69.1354 61.9142 69.0039C61.9531 67.4755 61.9828 65.9473 62.001 64.4185C62.0098 63.7086 62.0216 62.999 62.0406 62.2892C62.0589 61.6038 62.0688 60.9187 62.0732 60.2331C62.0763 59.972 62.0823 59.7109 62.0914 59.4499C62.1938 58.1293 62.1938 58.1293 61.7528 56.9371C61.3024 56.5446 60.7899 56.3361 60.2384 56.1133C60.0066 55.9746 59.777 55.8321 59.5516 55.6833C59.3401 55.5526 59.1287 55.422 58.9171 55.2915C58.8114 55.2245 58.7058 55.1576 58.5969 55.0886C57.2728 54.2778 56.0403 54.2669 54.522 54.275C54.2145 54.2764 53.9072 54.275 53.5997 54.2733C53.399 54.2735 53.1982 54.2738 52.9975 54.2744C52.9083 54.2738 52.8191 54.2733 52.7271 54.2728C50.8699 54.2897 49.0998 54.8279 47.3211 55.3066C47.0456 55.3802 46.7702 55.4537 46.4947 55.5272C45.9202 55.6807 45.3459 55.8349 44.7717 55.9895C44.0377 56.187 43.3032 56.3828 42.5686 56.578C42.0007 56.7292 41.4332 56.8814 40.8657 57.0339C40.595 57.1065 40.3242 57.1787 40.0533 57.2506C39.6746 57.3513 39.2963 57.4534 38.9181 57.5559C38.8075 57.5849 38.697 57.614 38.583 57.644C37.6218 57.9072 36.6807 58.1933 36.1329 59.0781C35.8482 59.6883 35.8126 60.2388 36.004 60.8828C36.2538 61.3843 36.5455 61.7126 37.0031 62.0349C38.1666 62.4153 39.2894 62.0278 40.4271 61.7207C40.6157 61.6709 40.8044 61.6212 40.993 61.5717C41.5561 61.4233 42.1186 61.2728 42.6811 61.1221C43.1411 60.9991 43.6013 60.8766 44.0616 60.7543C44.1465 60.7318 44.2315 60.7092 44.319 60.6859C44.4943 60.6393 44.6696 60.5928 44.8449 60.5462C46.8399 60.016 48.8342 59.4831 50.8283 58.9492C50.8686 59.1694 50.9089 59.3896 50.9491 59.6099C50.9715 59.7325 50.994 59.8551 51.0171 59.9815C51.0861 60.3674 51.1513 60.7538 51.215 61.1406C49.7135 61.542 48.212 61.9432 46.7104 62.3441C46.0132 62.5302 45.3159 62.7165 44.6188 62.9029C43.946 63.0827 43.2731 63.2624 42.6003 63.442C42.3435 63.5105 42.0868 63.5791 41.8301 63.6478C41.4707 63.744 41.1111 63.8399 40.7516 63.9357C40.6454 63.9642 40.5392 63.9927 40.4299 64.022C39.0342 64.3933 37.3305 64.74 35.9975 64.0088C35.9146 63.9556 35.8317 63.9024 35.7462 63.8477C35.6567 63.7945 35.5671 63.7413 35.4748 63.6865C34.6674 63.1533 34.0745 62.3597 33.8545 61.4091C33.6347 60.8977 33.3342 60.7449 32.8559 60.5112C32.7724 60.4679 32.689 60.4245 32.6029 60.3799C32.3305 60.2391 32.0565 60.1018 31.7824 59.9644C31.5926 59.8669 31.403 59.7692 31.2135 59.6711C30.8358 59.4759 30.4576 59.2817 30.079 59.0883C29.4101 58.7453 28.7506 58.3859 28.0924 58.0227C27.8694 57.9004 27.6463 57.7782 27.4232 57.6561C27.3112 57.5948 27.1992 57.5335 27.0838 57.4703C26.2501 57.0156 25.4144 56.5649 24.577 56.1172C23.9531 55.7835 23.3311 55.4483 22.7171 55.0966C21.5134 54.3813 21.5134 54.3813 20.1501 54.2361C19.4374 54.4353 19.019 54.8814 18.6017 55.4688Z" fill="black"/>
</g>
<defs>
<clipPath id="clip0_57609_19758">
<rect width="66" height="66" fill="white" transform="translate(7 7)"/>
</clipPath>
</defs>
</svg>
