<svg width="348" height="59" viewBox="0 0 348 59" fill="none" xmlns="http://www.w3.org/2000/svg">
<path d="M321.892 51.4445L316.802 55.3871C316.586 55.5565 316.716 55.8805 316.996 55.8779L341.3 55.6591L347.419 50.919L322.777 51.1409C322.455 51.1438 322.138 51.2501 321.892 51.4445Z" fill="black"/>
<path d="M316.414 51.2598L310.783 55.6208C310.646 55.7255 310.728 55.9366 310.907 55.935L313.753 55.9094C313.816 55.9088 313.879 55.8885 313.927 55.8487L319.342 51.657C319.552 51.4926 319.428 51.1735 319.153 51.176L316.588 51.1991C316.524 51.1996 316.461 51.2199 316.414 51.2598Z" fill="black"/>
<path d="M177.997 40.655L183.387 36.4833C183.597 36.3189 183.472 36.0047 183.197 36.0072L180.664 36.03C180.574 36.0308 180.495 36.0611 180.427 36.111L175.032 40.2877C174.822 40.4472 174.947 40.7663 175.216 40.7638L177.755 40.741C177.845 40.7402 177.924 40.7099 177.992 40.66L177.997 40.655Z" fill="black"/>
<path d="M177.731 36.0623L152.65 36.2881C152.566 36.2889 152.481 36.3192 152.413 36.3691L146.414 41.0145L146.414 41.0293L172.256 40.7966C172.341 40.7958 172.425 40.7655 172.494 40.7156L177.909 36.5238C178.109 36.3693 177.99 36.06 177.731 36.0623Z" fill="black"/>
<path d="M303.108 51.1347C302.642 51.1389 302.426 50.594 302.788 50.3198L306.292 47.6082C306.518 47.4337 306.776 47.2935 307.05 47.2023L323.028 41.7772C323.302 41.6811 323.56 41.5458 323.786 41.3713L331.571 35.3451C331.928 35.066 331.717 34.526 331.251 34.5302L284.073 34.9549C283.962 34.9559 283.852 34.9914 283.762 35.0612L260.243 53.0281C260.154 53.093 260.048 53.1333 259.932 53.1344L255.034 53.1785C254.569 53.1827 254.353 52.6378 254.715 52.3586L276.327 35.8474C276.69 35.5732 276.478 35.0233 276.008 35.0276L253.228 35.2327C253.143 35.2334 253.064 35.2538 252.99 35.289L239.054 42.5382C238.691 42.7238 238.26 42.4419 238.325 42.062L239.381 35.8943C239.431 35.6131 239.196 35.359 238.889 35.3618L221.361 35.5196C221.245 35.5206 221.134 35.5561 221.05 35.6258L207.629 46.0185C207.509 46.1132 207.356 46.1638 207.197 46.1652L202.797 46.2049C202.564 46.2069 202.351 46.1005 202.223 45.9243L200.123 43.0218C199.946 42.777 200.055 42.446 200.35 42.3349L216.966 36.0567C217.261 35.9457 217.172 35.5376 216.855 35.5404L209.472 35.6069C209.361 35.6079 209.25 35.6286 209.15 35.6689L198.259 39.7821C198.042 39.8629 197.793 39.7912 197.659 39.6151L195.062 36.0323C194.939 35.8609 194.726 35.7594 194.504 35.7614L186.898 35.8299C186.66 35.832 186.434 35.9079 186.25 36.0525L181.028 40.0949C180.824 40.2544 180.943 40.5686 181.212 40.5662L186.602 40.5177C186.766 40.5162 186.925 40.5936 187.016 40.7208L188.559 42.85C188.736 43.0947 188.628 43.4258 188.332 43.5368L172.418 49.5476C172.133 49.6536 172.216 50.0519 172.523 50.0492L180.022 49.9816C180.086 49.9811 180.144 49.9707 180.202 49.9455L190.423 46.0847C190.64 46.0039 190.889 46.0756 191.023 46.2517L193.422 49.5654C193.551 49.7465 193.774 49.8529 194.007 49.8508L204.992 49.7519L205.029 49.7516L215.591 49.6565C215.707 49.6554 215.818 49.6199 215.902 49.5502L227.626 40.4734C227.978 40.1993 228.505 40.4803 228.434 40.8997L227.048 49.0163C226.997 49.2976 227.232 49.5516 227.539 49.5489L236.938 49.4643C237.022 49.4635 237.101 49.4431 237.175 49.4079L252.632 41.3666C253.159 41.0909 253.657 41.7712 253.189 42.1252L235.544 55.6054C235.181 55.8796 235.392 56.4541 235.863 56.4499L244.648 56.3806L261.938 56.225L261.985 56.1901L270.966 56.1092C271.077 56.1082 271.188 56.0727 271.277 56.0029L292.669 39.6612C292.758 39.5963 292.864 39.556 292.98 39.5549L309.402 39.4071C309.868 39.4029 310.084 39.9478 309.722 40.222L308.078 41.498C307.841 41.6824 307.573 41.8228 307.288 41.9239L291.331 47.3438C291.046 47.44 290.788 47.5803 290.557 47.7597L285.998 51.2937L285.982 51.2938L280.929 55.2017C280.571 55.4808 280.783 56.0208 281.248 56.0166L308.375 55.7724C308.492 55.7713 308.603 55.7358 308.687 55.6661L314.071 51.4991C314.27 51.3445 314.151 51.0402 313.892 51.0425L303.124 51.1395L303.108 51.1347Z" fill="black"/>
<path d="M275.406 24.5956L263.654 24.7014C263.527 24.7025 263.441 24.5851 263.488 24.4763L269.255 11.2114C269.452 10.7564 269.093 10.2571 268.564 10.2619L257.891 10.358C257.241 10.3589 256.607 10.5321 256.055 10.8573L232.236 24.8463C232.078 24.9414 231.893 24.9923 231.703 24.994L227.985 25.0275C227.456 25.0322 227.175 24.4436 227.542 24.0806L240.261 11.4725C240.623 11.1096 240.348 10.5209 239.819 10.5256L229.754 10.6162C229.637 10.6173 229.527 10.6479 229.427 10.7079L213.493 20.4975C213.156 20.7025 212.705 20.5538 212.586 20.1953L209.553 11.1922C209.472 10.9565 209.238 10.796 208.973 10.7984L203.711 10.8458C203.547 10.8473 203.388 10.9127 203.278 11.0221L189.134 25.0423C188.919 25.2561 188.624 25.3769 188.312 25.3798L176.538 25.4858C174.756 25.5018 174.101 23.3105 175.633 22.4641L194.859 11.8123C195.307 11.5619 195.116 10.9232 194.592 10.9279L166.851 11.1777C166.555 11.1803 166.271 11.3011 166.072 11.5098L164.531 13.115C164.368 13.284 164.498 13.5488 164.741 13.5466L174.579 13.4581C175.933 13.4459 176.434 15.1114 175.266 15.7575L158.555 25.0122C157.813 25.4228 156.969 25.6472 156.107 25.6648L152.627 25.6961C150.865 25.712 149.927 23.7745 151.101 22.552L161.409 11.8179C161.629 11.5893 161.451 11.2214 161.123 11.2243L152.518 11.3018C152.238 11.3043 151.969 11.4151 151.786 11.6138L138.349 25.5981C138.213 25.7422 138.013 25.8277 137.807 25.8296L129.17 25.9073C128.096 25.917 127.227 25.1858 127.227 25.1858C125.137 23.2735 127.719 22.8118 128.58 22.6316C132.787 21.7513 135.377 20.3731 138.089 17.8017C141.839 14.2455 139.793 11.4164 136.297 11.4479L108.487 11.6982C108.339 11.6996 108.261 11.8629 108.363 11.9654L110.257 13.8697C110.359 13.9722 110.502 14.0301 110.65 14.0287L128.242 13.8703C129.643 13.8577 130.392 15.3979 129.454 16.3719C127.002 18.9263 123.508 20.4012 119.827 20.4343L117.822 20.4524C117.643 20.454 117.551 20.2578 117.666 20.1336L121.004 16.6599C121.12 16.5406 121.028 16.3493 120.853 16.3509L111.608 16.4341C111.471 16.4353 111.339 16.4907 111.25 16.5851L102.467 25.729C102.21 25.9973 101.841 26.1534 101.461 26.1568L96.0552 26.2055C95.944 26.1917 95.8691 26.0889 95.9104 25.9851L101.678 12.7202C101.875 12.2652 101.516 11.7659 100.987 11.7707L90.314 11.8668C89.6634 11.8677 89.0303 12.0409 88.4778 12.3661L64.7689 26.2901L55.174 18.0753C54.726 17.6704 54.8731 16.9745 55.4476 16.7476L83.8354 5.51079C85.3745 4.91068 86.806 4.0997 88.0877 3.10778L88.6917 2.63924C88.8546 2.51461 88.7043 2.27457 88.5091 2.33544L49.6935 15.0702C49.2136 15.2273 48.8069 14.7087 49.1156 14.3315L53.8139 8.59907C53.8976 8.49486 53.8169 8.34779 53.6794 8.34903L44.7991 8.42899C44.2544 8.43389 43.738 8.65531 43.3764 9.03298L0.533997 53.9102C0.361056 54.0891 0.596124 54.3481 0.817198 54.2278L3.70641 52.5958C3.96428 52.4506 4.21674 52.2907 4.45848 52.1161L31.9235 32.3942L43.3316 21.6748C43.5833 21.4312 43.9957 21.4176 44.2623 21.6468L51.0726 27.8323C51.3231 28.0468 51.3475 28.4111 51.117 28.6497L49.6607 29.6382C49.4197 29.8917 49.6295 30.2888 49.9942 30.2609L66.5532 28.8309L87.626 16.453C88.6046 15.8776 89.7926 16.8079 89.3572 17.802L85.7038 26.2051C85.6779 26.2644 85.6148 26.3044 85.5407 26.3051L78.7443 26.3663C78.6969 26.3864 78.66 26.4015 78.6179 26.4216L76.658 28.4591C76.5584 28.5635 76.6393 28.7303 76.7874 28.7289L103.021 28.4927C103.021 28.4927 103.037 28.4926 103.047 28.4876L109.336 28.4309C109.563 28.4289 109.779 28.3383 109.937 28.1792L114.763 23.155C114.894 23.0159 115.116 22.9991 115.27 23.116L122.001 28.1198C122.172 28.2464 122.384 28.3135 122.606 28.3115L147.845 28.0842L161.073 27.97L191.263 27.6982L191.284 27.6783L195.811 27.6376C196.303 27.6331 196.772 27.4417 197.108 27.1086L203.755 20.5211C204.07 20.2079 204.632 20.326 204.773 20.7386L205.729 23.5775C205.811 23.8132 206.045 23.9737 206.309 23.9713L213.666 23.9051C213.783 23.904 213.894 23.8735 213.994 23.8134L219.612 20.3586C220.211 19.9936 220.874 20.7266 220.381 21.2138L214.635 26.9114C214.42 27.1252 214.582 27.4735 214.899 27.4755L228.545 27.3675C228.545 27.3675 228.55 27.3674 228.556 27.3674L234.088 27.3176C234.12 27.3074 234.146 27.3023 234.178 27.2921L255.208 14.9392C256.187 14.3638 257.375 15.2941 256.945 16.2882L253.292 24.6912C253.266 24.7506 253.202 24.7906 253.128 24.7912L246.332 24.8524C246.285 24.8726 246.248 24.8877 246.206 24.9078L244.246 26.9453C244.146 27.0496 244.227 27.2164 244.375 27.2151L270.609 26.9789C270.609 26.9789 270.656 26.9686 270.682 26.9634L275.483 24.9003C275.656 24.8249 275.596 24.5889 275.406 24.5907L275.406 24.5956Z" fill="black"/>
</svg>
