<svg width="24" height="24" viewBox="0 0 24 24" fill="none" xmlns="http://www.w3.org/2000/svg">
<path d="M17.2813 4.00016H6.71866C5.22563 4.00016 4 5.22582 4 6.71882V10.7522H4.86908V6.71882C4.86908 5.69367 5.69355 4.86924 6.71866 4.86924H17.2813C18.3065 4.86924 19.1309 5.69371 19.1309 6.71882V17.2815C19.1309 18.3066 18.3064 19.1311 17.2813 19.1311L6.71866 19.1309C5.69351 19.1309 4.86908 18.3064 4.86908 17.2813V13.2479H4V17.2813C4 18.7744 5.22567 20 6.71866 20H17.2813C18.7744 20 20 18.7743 20 17.2813L19.9998 6.71866C19.9998 5.22563 18.7742 4 17.2812 4L17.2813 4.00016Z" fill="#303030"/>
<path d="M9.32345 13.5841L9.74669 14.4001L13.6 12.0001L9.74669 9.6001L9.32345 10.4161L11.1276 11.5441H4V12.4561H11.1276L9.32345 13.5841Z" fill="#303030"/>
</svg>
