<svg width="348" height="66" viewBox="0 0 348 66" fill="none" xmlns="http://www.w3.org/2000/svg">
<g clip-path="url(#clip0_10655_1326)">
<path d="M148.817 55.4153C148.817 56.0197 148.85 55.9758 148.35 55.9813C146.361 55.9867 144.378 55.9977 142.389 56.0087C141.581 56.0087 141.427 56.0307 141.933 55.69C143.999 54.2999 146.07 52.9097 148.136 51.5196C148.713 51.1295 148.795 51.0031 148.801 51.8383C148.801 53.0801 148.812 54.2065 148.817 55.4153Z" fill="black"/>
<path d="M173.423 55.3218C173.418 54.1129 173.407 52.9865 173.407 51.7447C173.401 50.9096 173.319 51.0414 172.742 51.4315C170.671 52.8217 168.605 54.2119 166.539 55.5965C166.033 55.9372 166.187 55.9207 166.995 55.9152C168.978 55.9097 170.967 55.8987 172.951 55.8877C173.456 55.8877 173.423 55.9262 173.423 55.3218ZM173.423 55.3218C173.418 54.1129 173.407 52.9865 173.407 51.7447C173.401 50.9096 173.319 51.0414 172.742 51.4315C170.671 52.8217 168.605 54.2119 166.539 55.5965C166.033 55.9372 166.187 55.9207 166.995 55.9152C168.978 55.9097 170.967 55.8987 172.951 55.8877C173.456 55.8877 173.423 55.9262 173.423 55.3218ZM345.083 22.6559L260.926 22.7823L261.02 37.4531L310.51 36.975C311.082 36.975 311.472 42.1785 310.719 42.1785C310.719 42.1785 202.551 42.2664 185.385 42.1785C183.545 42.1675 179.984 42.1895 175.165 42.2225C170.346 42.1895 163.231 42.2005 161.39 42.2115C144.214 42.3104 35.919 42.2225 35.919 42.2225C35.1663 42.2225 35.1443 37.008 35.7157 37.019L86.8108 37.486L86.9097 22.8153L3.92902 22.6065C1.90698 22.601 0.258578 24.2329 0.247589 26.2549L0.137695 45.4423C0.203631 48.8765 1.22015 50.2282 3.59385 50.2502L91.2615 50.6788C93.4868 50.8326 95.3385 51.0854 96.2177 51.5799L117.652 63.5583C118.57 64.0748 121.4 65.2507 122.416 65.2397L175.165 64.855L224.348 65.2067C225.376 65.2177 228.2 64.0418 229.123 63.5253L250.558 51.5469C251.437 51.0524 253.289 50.7997 255.514 50.6458L344.28 50.2062C346.643 50.1952 347.66 48.8436 347.731 45.4094L347.863 25.8923C347.874 24.0625 346.918 22.6504 345.083 22.6559ZM155.06 58.1405L155.027 61.2945L148.989 61.3439L148.884 58.4977C148.862 58.0197 148.725 58.0471 148.258 58.0471C144.076 58.0966 139.911 58.1515 135.735 58.201L135.702 56.9042C135.669 55.6899 135.768 55.7284 136.818 55.0251C140.637 52.4426 143.774 50.3216 147.593 47.7391C148.28 47.2776 148.192 47.2666 149.186 47.2666H154.796L154.868 54.7888C154.879 55.8658 154.758 55.8877 155.72 55.8603C156.84 55.8493 158.121 55.8548 159.247 55.8493L159.258 58.0746L155.06 58.1405ZM179.665 58.0471L179.627 61.2011L173.594 61.256L173.484 58.4043C173.467 57.9263 173.33 57.9537 172.863 57.9592C168.681 58.0087 164.5 58.0581 160.319 58.1076V56.9977C160.33 55.7284 160.192 55.7614 161.044 55.1899C164.863 52.6074 168.379 50.2282 172.198 47.6457C172.885 47.1842 172.792 47.1732 173.792 47.1732H179.402L179.473 54.6954C179.484 55.7723 179.358 55.7943 180.319 55.7668C181.446 55.7559 182.693 55.7668 183.819 55.7559L183.863 57.9812L179.665 58.0471ZM203.65 61.1022C198.21 61.1242 193.056 61.1461 187.616 61.1736C185.435 61.1736 185.023 59.3164 184.99 58.2504L184.918 50.2337C184.852 47.882 186.039 47.2501 188.913 47.2336C193.968 47.2116 198.88 47.1897 203.935 47.1677C207.122 47.1567 207.139 48.6293 207.161 50.1678C207.194 52.7613 207.232 55.3547 207.265 57.9482C207.293 60.1186 206.045 61.0912 203.65 61.1022ZM199.402 49.5688C197.007 49.5798 194.594 49.5688 192.193 49.5688C190.781 49.5688 190.902 49.8271 190.924 51.1788C190.951 53.1239 190.968 54.6075 190.995 56.5526C191.017 58.0801 191.072 58.3439 192.221 58.3384C194.737 58.3274 196.897 58.3219 199.413 58.3054C200.963 58.2999 201.073 58.5362 201.084 57.0086L201.128 51.3271C201.139 49.6403 200.836 49.5688 199.402 49.5743V49.5688ZM173.407 51.7447C173.401 50.9096 173.319 51.0414 172.742 51.4315C170.671 52.8217 168.605 54.2119 166.539 55.5965C166.033 55.9372 166.187 55.9207 166.995 55.9152C168.978 55.9097 170.967 55.8987 172.951 55.8877C173.456 55.8877 173.423 55.9262 173.423 55.3218C173.418 54.1129 173.407 52.9865 173.407 51.7447Z" fill="black"/>
<path d="M141.411 0.732178H132.131L124.273 38.5795H132.488L133.483 33.7992H140.043L141.038 38.585H149.252L141.411 0.732178ZM134.972 27.0297L136.884 15.2216L138.702 27.0297H134.972Z" fill="black"/>
<path d="M92.4153 38.5575C92.4153 26.3813 92.4208 14.2051 92.4263 2.02892C92.4263 0.732181 92.19 0.721191 93.7945 0.721191H101.905L106.993 15.6118L112.081 0.721191H120.922L106.982 35.2607L101.108 19.9581V38.5575H92.4153Z" fill="black"/>
<path d="M201.045 14.0843L209.265 1.43559V0.836673L201.05 0.825684L201.045 14.0843Z" fill="black"/>
<path d="M201.045 17.4525L201.039 38.6949L209.259 38.7004L209.265 4.34766L201.045 17.4525Z" fill="black"/>
<path d="M159.027 21.4087L154.752 0.748662H154.736L154.73 0.737672L146.516 0.732178L154.368 38.6784L163.659 38.6839L171.533 0.743167L163.318 0.737672L159.027 21.4087Z" fill="black"/>
<path d="M256.981 0.770631L248.112 0.765137L243.634 16.5953L243.447 16.6008V0.765137H235.233L235.222 38.7059L243.442 38.7114V22.7823H243.629L248.541 38.5081L256.783 38.6235L251.255 19.0569L256.981 0.770631Z" fill="black"/>
<path d="M222.491 17.5129V8.5071C222.491 8.00708 222.953 7.60597 223.518 7.60597H231.733L231.656 0.781581H219.161C214.7 0.776087 214.276 1.01785 214.276 5.13886V35.3047C214.265 38.9696 215.414 38.6179 219.15 38.6179H231.804L231.728 31.7936H223.513C222.947 31.7936 222.485 31.3869 222.485 30.8869V17.5184L222.491 17.5129Z" fill="black"/>
<path d="M192.747 27.1342C194.582 27.1122 196.044 26.7441 196.05 24.4968V5.12804C196.055 0.99604 195.665 0.748779 191.165 0.748779H173.972L173.961 38.684H182.181V26.288L184.093 26.5188L188.368 38.6016H197.105L192.747 27.1342ZM187.835 19.6395C187.835 20.1395 187.373 20.5406 186.808 20.5406H182.186V7.58965H186.808C187.379 7.58965 187.835 7.99626 187.835 8.49628V19.6395Z" fill="black"/>
<path d="M112.854 38.5633L112.86 25.4475L121.553 3.91382L121.547 38.5633H112.854Z" fill="black"/>
</g>
<defs>
<clipPath id="clip0_10655_1326">
<rect width="348" height="64.7987" fill="white" transform="translate(0 0.578369)"/>
</clipPath>
</defs>
</svg>
