<svg width="24" height="24" viewBox="0 0 24 24" fill="none" xmlns="http://www.w3.org/2000/svg">
<path d="M19.6 22C19.8212 22 20 21.821 20 21.6001L20.0001 2.39995C20.0001 2.17879 19.8212 2 19.6002 2H4.39995C4.17879 2 4 2.17896 4 2.39995V21.6001C4 21.8212 4.17896 22 4.39995 22H19.6ZM4.80007 2.79989H19.2001V21.1999L4.80007 21.2V2.79989Z" fill="#303030"/>
<path d="M8.60424 3.93311H6.27104C6.04989 3.93311 5.87109 4.11207 5.87109 4.33305V6.66659C5.87109 6.88775 6.05006 7.06654 6.27104 7.06654H8.60424C8.82539 7.06654 9.00418 6.88757 9.00418 6.66659V4.33305C9.00418 4.11207 8.82522 3.93311 8.60424 3.93311ZM8.20413 6.26682H6.67099V4.73317H8.20413V6.26682Z" fill="#303030"/>
<path d="M8.6044 8.2666H6.27121C6.05005 8.2666 5.87126 8.44557 5.87126 8.66655L5.87109 10.9999C5.87109 11.2211 6.05006 11.3999 6.27104 11.3999H8.60424C8.82539 11.3999 9.00418 11.2209 9.00418 10.9999V8.66672C9.00435 8.44557 8.82539 8.2666 8.6044 8.2666ZM8.20429 10.5998H6.67116V9.06666H8.20429V10.5998Z" fill="#303030"/>
<path d="M8.60424 12.6001H6.27104C6.04989 12.6001 5.87109 12.7791 5.87109 13V15.3332C5.87109 15.5544 6.05006 15.7332 6.27104 15.7332H8.60424C8.82539 15.7332 9.00418 15.5542 9.00418 15.3332V13C9.00418 12.7791 8.82522 12.6001 8.60424 12.6001ZM8.20413 14.9333H6.67099V13.4002H8.20413V14.9333Z" fill="#303030"/>
<path d="M8.60424 16.9336H6.27104C6.04989 16.9336 5.87109 17.1126 5.87109 17.3335V19.6671C5.87109 19.8882 6.05006 20.067 6.27104 20.067H8.60424C8.82539 20.067 9.00418 19.8881 9.00418 19.6671V17.3335C9.00418 17.1124 8.82522 16.9336 8.60424 16.9336ZM8.20413 19.2671H6.67099V17.7335H8.20413V19.2671Z" fill="#303030"/>
<path d="M17.8541 5.1001H10.5542C10.3331 5.1001 10.1543 5.27906 10.1543 5.50004C10.1543 5.7212 10.3333 5.89999 10.5542 5.89999H17.8541C18.0753 5.89999 18.2541 5.72102 18.2541 5.50004C18.2541 5.27906 18.0753 5.1001 17.8541 5.1001Z" fill="#303030"/>
<path d="M17.8541 9.43359H10.5542C10.3331 9.43359 10.1543 9.61256 10.1543 9.83354C10.1543 10.0547 10.3333 10.2335 10.5542 10.2335H17.8541C18.0753 10.2335 18.2541 10.0545 18.2541 9.83354C18.2541 9.61239 18.0753 9.43359 17.8541 9.43359Z" fill="#303030"/>
<path d="M17.8541 13.7671H10.5542C10.3331 13.7671 10.1543 13.9461 10.1543 14.167C10.1543 14.3882 10.3333 14.567 10.5542 14.567H17.8541C18.0753 14.567 18.2541 14.388 18.2541 14.167C18.2541 13.9459 18.0753 13.7671 17.8541 13.7671Z" fill="#303030"/>
<path d="M17.8541 18.1001H10.5542C10.3331 18.1001 10.1543 18.2791 10.1543 18.5C10.1543 18.7212 10.3333 18.9 10.5542 18.9H17.8541C18.0753 18.9 18.2541 18.721 18.2541 18.5C18.2541 18.2791 18.0753 18.1001 17.8541 18.1001Z" fill="#303030"/>
</svg>
