<svg width="25" height="17" viewBox="0 0 25 17" fill="none" xmlns="http://www.w3.org/2000/svg">
<g clip-path="url(#clip0_12972_660)">
<path d="M3.02936 8.27344C3.06449 8.2613 3.09182 8.25726 3.12695 8.24512V7.27416C3.12695 7.14469 3.18551 7.02332 3.29091 6.94646C3.39241 6.86959 3.52514 6.84936 3.64226 6.88982L4.8134 7.29439C4.8134 7.29439 4.83292 7.30652 4.84463 7.31461C4.86024 7.3227 4.87586 7.3227 4.89148 7.3308L6.61696 8.4029L7.59291 7.64636L6.84338 7.22561C6.77311 7.18515 6.71846 7.12447 6.67942 7.05164L5.95331 5.54665L2.54529 3.58449C2.38523 3.49143 2.30715 3.2932 2.36181 3.11114C2.41646 2.92908 2.58432 2.80771 2.77171 2.82794L7.0659 3.23251C7.21034 3.24465 7.33916 3.34579 7.39382 3.48334L7.76858 4.45026C7.81933 4.44217 7.87008 4.44217 7.92083 4.45835L10.4817 5.2149L11.4499 4.54736C12.0159 3.72204 12.9255 3.22846 13.9093 3.22846H15.7402C16.5443 3.22846 17.2548 3.72608 17.5515 4.49881L17.8404 5.25131H19.2848L19.4019 5.01261L16.2164 3.17587C16.1774 3.1516 16.1462 3.12328 16.1149 3.08686C16.1071 3.07877 16.0993 3.07068 16.0915 3.05855C16.0837 3.05045 16.0759 3.04236 16.072 3.03427C16.0564 3.00595 16.0408 2.97359 16.0329 2.94527C16.0212 2.90076 16.0173 2.85626 16.0173 2.81176C16.0173 2.79962 16.0173 2.79153 16.0173 2.77939C16.0212 2.73489 16.0329 2.68634 16.0525 2.64588L17.2236 0.218469C17.2744 0.117327 17.3602 0.040459 17.4656 0.00809342C17.571 -0.0202264 17.6843 -0.00404366 17.778 0.052596L18.3791 0.440982C19.2302 0.995242 19.9914 1.67492 20.6473 2.46383C21.2953 3.25274 22.2244 5.09353 22.2244 5.09353C22.2244 5.09353 22.3979 6.06823 22.4961 6.49578L21.9961 7.49578C21.9961 7.71829 21.6935 7.68277 21.4788 7.68277H21.1352L22.7436 8.09948C22.8802 8.13589 22.9856 8.24512 23.0247 8.38268C23.0598 8.50809 23.0247 8.6416 22.9505 8.74274C24.2075 9.54784 25 10.9841 25 12.5376C25 14.9974 23.0715 16.996 20.698 16.996C18.9842 16.996 17.5047 15.9481 16.8137 14.4391C16.802 14.613 16.7942 14.7911 16.7942 14.965C16.7942 15.1875 16.6185 15.3696 16.4038 15.3696H10.1577C10.0211 15.3696 9.89616 15.2968 9.82589 15.1794C9.75562 15.0621 9.74781 14.9124 9.81028 14.787L10.0172 14.3622L9.72439 13.7554H8.44394C7.92473 15.6528 6.23438 17 4.3059 17C1.93239 17 0.00390434 15.0014 0.00390434 12.5416C0.00390434 10.5754 1.22189 8.86411 3.03716 8.27749L3.02936 8.27344ZM4.18879 11.5707L5.55512 10.98C5.20768 10.6766 4.76265 10.5026 4.2981 10.5026C3.21674 10.5026 2.33838 11.4129 2.33838 12.5336C2.33838 13.6542 3.21674 14.5645 4.2981 14.5645C4.92661 14.5645 5.50437 14.253 5.86743 13.7473H4.6104C4.00921 13.7473 3.51733 13.2375 3.51733 12.6145C3.51733 12.1573 3.78279 11.7487 4.19269 11.5707H4.18879ZM9.72049 11.951L10.1968 12.9422H10.3568L9.77905 11.3401L3.95456 7.69086L3.86477 8.06307L3.75937 8.49191L9.54482 11.7689C9.61899 11.8094 9.68145 11.8701 9.72049 11.951ZM12.3868 10.976L11.8168 11.1742L12.3868 12.9422H13.3862L13.6126 12.2423L12.3907 10.976H12.3868ZM11.1961 10.535L11.77 10.3367L11.2078 9.75417L9.45113 10.2761L10.3841 11.0002C10.4427 11.0447 10.4856 11.1054 10.513 11.1742L11.1961 12.9422H11.5631L10.9541 11.0488C10.8877 10.8384 10.997 10.6078 11.2 10.539L11.1961 10.535ZM7.33526 8.86007L8.64304 9.67325L10.2983 9.18372L8.34244 8.07925L7.33526 8.86007ZM10.4349 6.04831L8.198 5.38482L10.8877 6.80081L11.9613 5.9674L11.6021 5.40909L10.755 5.99572C10.6613 6.06045 10.5403 6.08068 10.431 6.04831H10.4349ZM16.8176 4.80224C16.638 4.33698 16.2125 4.0376 15.7285 4.0376H13.8976C13.2339 4.0376 12.6093 4.34103 12.1877 4.85888L12.8162 5.83389C12.9294 6.0119 12.8904 6.25464 12.7264 6.38006L11.1649 7.59377C11.1337 7.61804 11.0985 7.63827 11.0595 7.65041C11.0478 7.65445 11.0361 7.65445 11.0205 7.6585C10.997 7.66659 10.9697 7.67063 10.9463 7.67063C10.9424 7.67063 10.9346 7.67063 10.9307 7.67063C10.9229 7.67063 10.919 7.66659 10.9111 7.66659C10.8565 7.66659 10.8057 7.65445 10.755 7.63018L7.63195 6.0119C7.59291 5.99167 7.56168 5.96335 7.53045 5.93099C7.52264 5.9229 7.51484 5.91076 7.50703 5.90267C7.48751 5.87839 7.47189 5.85007 7.45628 5.82175C7.45628 5.81366 7.44847 5.80962 7.44457 5.80152L6.75359 4.00928L4.53623 3.79891L6.43348 4.89124C6.50375 4.9317 6.5584 4.99239 6.59354 5.06521L7.31964 6.57021L11.2859 8.81152L15.7714 5.32818C15.8378 5.27558 15.9197 5.24726 16.0056 5.24726H16.9894L16.8137 4.79819L16.8176 4.80224ZM17.9614 1.12875L17.7233 0.975014L17.0128 2.4436C18.2737 2.54879 19.4878 2.96954 20.5536 3.66944C20.5418 3.64922 20.5301 3.63303 20.5145 3.6128C20.3662 3.39838 20.2139 3.19205 20.0461 2.98977C19.4449 2.26559 18.7422 1.63851 17.9575 1.12875H17.9614ZM21.7872 13.1768C21.713 13.282 21.5959 13.3467 21.471 13.3467H20.2998C20.1359 13.3467 19.9875 13.2416 19.9329 13.0797L19.2575 11.154C18.9218 11.5221 18.7305 12.0117 18.7305 12.5376C18.7305 13.6583 19.6088 14.5685 20.6902 14.5685C21.7715 14.5685 22.6499 13.6583 22.6499 12.5376C22.6499 11.7082 22.1736 10.9881 21.471 10.6766V11.6637L21.8418 12.8168C21.8809 12.9381 21.8613 13.0757 21.7872 13.1809V13.1768ZM19.6401 8.1278L19.1911 8.59305L19.2614 8.79534L19.804 10.3408L20.5731 12.5336H20.9283L20.7097 11.8539C20.698 11.8134 20.6902 11.7689 20.6902 11.7244V10.1061C20.6902 9.99691 20.7331 9.89577 20.8034 9.8189L21.877 8.70633L19.6362 8.1278H19.6401ZM20.6902 16.1828C22.6304 16.1828 24.2114 14.5443 24.2114 12.5336C24.2114 11.1985 23.5009 9.97263 22.3805 9.33341L21.7989 9.93622C22.7748 10.3772 23.4346 11.3805 23.4346 12.5336C23.4346 14.0992 22.2049 15.3736 20.6941 15.3736C19.1833 15.3736 17.9536 14.0992 17.9536 12.5336C17.9536 11.6637 18.3284 10.8627 18.9725 10.3287L18.6914 9.53165C18.5782 9.61257 18.4689 9.70157 18.3674 9.79867L18.2386 9.99691C18.1215 10.183 18.0083 10.3691 17.9068 10.5593C17.8599 10.6402 17.8248 10.7251 17.7819 10.8101C17.7272 10.9193 17.6686 11.0245 17.6179 11.1337C17.575 11.2268 17.5398 11.3239 17.5008 11.4169C17.4578 11.5181 17.4149 11.6152 17.3759 11.7204C17.3368 11.8256 17.3056 11.9307 17.2705 12.0319C17.2392 12.1209 17.208 12.2099 17.1807 12.303C17.1729 12.3798 17.1729 12.4567 17.1729 12.5336C17.1729 14.5443 18.7539 16.1828 20.6941 16.1828H20.6902ZM16.4194 12.1007C16.6732 11.2228 17.0675 10.3651 17.5867 9.54784L17.7428 9.30509L19.1721 7.17784C19.2463 7.06456 19.3673 6.99578 19.4961 6.99578L21.6331 6.98567C21.811 6.75013 21.8937 6.40898 21.8937 6.40898C21.8937 6.40898 21.7658 5.75849 21.6754 5.24726L20.9961 4.49578C20.2739 3.85656 19.1721 3.51313 18.5002 3.56426L20.1007 4.48667C20.2842 4.59186 20.3545 4.82651 20.2608 5.02071L19.8704 5.82984C19.804 5.9674 19.6674 6.05236 19.523 6.05236H16.1384L11.9183 9.33341L12.7694 10.2154L14.3309 11.8337C14.4363 11.9429 14.4714 12.1007 14.4246 12.2463L14.0342 13.46C13.9795 13.6259 13.8312 13.7351 13.6633 13.7351H11.2117L10.9502 14.5443H16.0134C16.0486 13.7149 16.1852 12.8896 16.4194 12.0885V12.1007ZM9.07636 12.4284L7.63195 11.6799C7.63195 11.6799 7.62805 11.6759 7.62414 11.6718C7.61633 11.6718 7.61243 11.6678 7.60462 11.6637L6.94098 11.2511L6.37102 11.4979C6.37102 11.4979 6.36712 11.5019 6.36321 11.5019L4.48548 12.311C4.36836 12.3636 4.29029 12.481 4.29029 12.6104C4.29029 12.7884 4.43082 12.9341 4.60259 12.9341H9.3184L9.07246 12.4284H9.07636ZM4.29419 16.1787C5.79716 16.1787 7.12445 15.1794 7.61633 13.7432H6.7614C6.31246 14.7263 5.35993 15.3696 4.29419 15.3696C2.78342 15.3696 1.55372 14.0952 1.55372 12.5295C1.55372 10.9638 2.78342 9.68943 4.29419 9.68943C4.34494 9.68943 4.39569 9.69753 4.45034 9.69753L3.70472 9.23227C3.70472 9.23227 3.68129 9.208 3.66958 9.19991C3.65787 9.18777 3.64226 9.18372 3.63054 9.17159L3.45097 8.98548C3.38851 9.00167 3.32605 9.0138 3.25578 9.03808C1.77233 9.51547 0.772955 10.9193 0.772955 12.5255C0.772955 14.5362 2.354 16.1747 4.29419 16.1747V16.1787Z" fill="black"/>
</g>
<defs>
<clipPath id="clip0_12972_660">
<rect width="25" height="17" fill="white" transform="matrix(-1 0 0 1 25 0)"/>
</clipPath>
</defs>
</svg>
