<svg width="18" height="22" viewBox="0 0 18 22" fill="none" xmlns="http://www.w3.org/2000/svg">
<g id="Group">
<path id="Vector" d="M2.01011 21.05L16.0401 21.05C16.5943 21.05 17.05 20.6223 17.05 20.091V1.90918C17.05 1.37788 16.5943 0.950152 16.0401 0.950152L1.96011 0.95C1.40571 0.95 0.95 1.37773 0.95 1.90919V20.091C0.95 20.6223 1.40572 21.05 1.96011 21.05H2.01011ZM1.68997 1.90926C1.68997 1.77221 1.80891 1.65625 1.95995 1.65625H16.0399C16.1909 1.65625 16.3099 1.77222 16.3099 1.90926V20.091C16.3099 20.2281 16.1909 20.3441 16.0399 20.3441L1.95995 20.3439C1.80891 20.3439 1.68997 20.2279 1.68997 20.0909V1.90926Z" fill="#303030" stroke="#303030" stroke-width="0.1"/>
<path id="Vector_2" d="M3.2412 7.66434H14.7612C15.2904 7.66434 15.7212 7.25646 15.7212 6.75531V4.33106C15.7212 3.82991 15.2904 3.42203 14.7612 3.42203L3.2412 3.42188C2.71198 3.42188 2.28125 3.82975 2.28125 4.33106V6.75531C2.28125 7.25646 2.71198 7.66434 3.2412 7.66434V7.66434ZM2.92122 4.33106C2.92122 4.1638 3.06522 4.02805 3.2412 4.02805H14.7612C14.9372 4.02805 15.0812 4.1638 15.0812 4.33106V6.75531C15.0812 6.92257 14.9372 7.05832 14.7612 7.05832H3.2412C3.06522 7.05832 2.92122 6.92256 2.92122 6.75531V4.33106Z" fill="#303030"/>
<path id="Vector_3" d="M3.2412 11.3026H4.52111C5.05033 11.3026 5.48106 10.8947 5.48106 10.3936C5.48106 9.89241 5.05033 9.48453 4.52111 9.48453L3.2412 9.48438C2.71198 9.48438 2.28125 9.89225 2.28125 10.3934C2.28125 10.8947 2.71198 11.3026 3.2412 11.3026V11.3026ZM3.2412 10.0906H4.52111C4.69709 10.0906 4.84109 10.2263 4.84109 10.3936C4.84109 10.5608 4.69709 10.6966 4.52111 10.6966H3.2412C3.06522 10.6966 2.92122 10.5608 2.92122 10.3936C2.92122 10.2263 3.06522 10.0906 3.2412 10.0906Z" fill="#303030"/>
<path id="Vector_4" d="M3.2412 14.9352H4.52111C5.05033 14.9352 5.48106 14.5274 5.48106 14.0262C5.48106 13.5251 5.05033 13.1172 4.52111 13.1172H3.2412C2.71198 13.1172 2.28125 13.5251 2.28125 14.0262C2.28125 14.5274 2.71198 14.9352 3.2412 14.9352ZM3.2412 13.7232H4.52111C4.69709 13.7232 4.84109 13.859 4.84109 14.0262C4.84109 14.1935 4.69709 14.3292 4.52111 14.3292H3.2412C3.06522 14.3292 2.92122 14.1935 2.92122 14.0262C2.92122 13.859 3.06522 13.7232 3.2412 13.7232Z" fill="#303030"/>
<path id="Vector_5" d="M3.2412 18.576H4.52111C5.05033 18.576 5.48106 18.1681 5.48106 17.667C5.48106 17.1658 5.05033 16.758 4.52111 16.758L3.2412 16.7578C2.71198 16.7578 2.28125 17.1657 2.28125 17.6668C2.28125 18.1682 2.71198 18.576 3.2412 18.576V18.576ZM3.2412 17.3638H4.52111C4.69709 17.3638 4.84109 17.4996 4.84109 17.6669C4.84109 17.8341 4.69709 17.9699 4.52111 17.9699L3.2412 17.97C3.06522 17.97 2.92122 17.8343 2.92122 17.667C2.92122 17.4996 3.06522 17.3638 3.2412 17.3638Z" fill="#303030"/>
<path id="Vector_6" d="M14.7613 9.48438H13.4814C12.9522 9.48438 12.5215 9.89225 12.5215 10.3934C12.5215 10.8946 12.9522 11.3024 13.4814 11.3024H14.7613C15.2906 11.3024 15.7213 10.8946 15.7213 10.3934C15.7213 9.89225 15.2906 9.48438 14.7613 9.48438ZM14.7613 10.6966H13.4814C13.3055 10.6966 13.1615 10.5608 13.1615 10.3936C13.1615 10.2263 13.3055 10.0905 13.4814 10.0905H14.7613C14.9373 10.0905 15.0813 10.2263 15.0813 10.3936C15.0813 10.5608 14.9373 10.6966 14.7613 10.6966Z" fill="#303030"/>
<path id="Vector_7" d="M14.7613 13.1172H13.4814C12.9522 13.1172 12.5215 13.5251 12.5215 14.0262C12.5215 14.5274 12.9522 14.9352 13.4814 14.9352H14.7613C15.2906 14.9352 15.7213 14.5274 15.7213 14.0262C15.7213 13.5251 15.2906 13.1172 14.7613 13.1172ZM14.7613 14.3292H13.4814C13.3055 14.3292 13.1615 14.1935 13.1615 14.0262C13.1615 13.8589 13.3055 13.7232 13.4814 13.7232H14.7613C14.9373 13.7232 15.0813 13.859 15.0813 14.0262C15.0813 14.1935 14.9373 14.3292 14.7613 14.3292Z" fill="#303030"/>
<path id="Vector_8" d="M14.7613 16.7578H13.4814C12.9522 16.7578 12.5215 17.1657 12.5215 17.6668C12.5215 18.168 12.9522 18.5759 13.4814 18.5759H14.7613C15.2906 18.5759 15.7213 18.168 15.7213 17.6668C15.7213 17.1657 15.2906 16.7578 14.7613 16.7578ZM14.7613 17.97H13.4814C13.3055 17.97 13.1615 17.8342 13.1615 17.667C13.1615 17.4997 13.3055 17.364 13.4814 17.364H14.7613C14.9373 17.364 15.0813 17.4997 15.0813 17.667C15.0813 17.8342 14.9373 17.97 14.7613 17.97Z" fill="#303030"/>
<path id="Vector_9" d="M9.63635 9.48438H8.35643C7.82721 9.48438 7.39648 9.89225 7.39648 10.3934C7.39648 10.8946 7.82721 11.3024 8.35643 11.3024H9.63635C10.1656 11.3024 10.5963 10.8946 10.5963 10.3934C10.5965 9.89225 10.1657 9.48438 9.63635 9.48438ZM9.63635 10.6966H8.35643C8.18045 10.6966 8.03645 10.5608 8.03645 10.3936C8.03645 10.2263 8.18045 10.0905 8.35643 10.0905H9.63635C9.81233 10.0905 9.95633 10.2263 9.95633 10.3936C9.95633 10.5608 9.81233 10.6966 9.63635 10.6966Z" fill="#303030"/>
<path id="Vector_10" d="M9.63635 13.1172H8.35643C7.82721 13.1172 7.39648 13.5251 7.39648 14.0262C7.39648 14.5274 7.82721 14.9352 8.35643 14.9352H9.63635C10.1656 14.9352 10.5963 14.5274 10.5963 14.0262C10.5965 13.5251 10.1657 13.1172 9.63635 13.1172ZM9.63635 14.3292H8.35643C8.18045 14.3292 8.03645 14.1935 8.03645 14.0262C8.03645 13.8589 8.18045 13.7232 8.35643 13.7232H9.63635C9.81233 13.7232 9.95633 13.859 9.95633 14.0262C9.95633 14.1935 9.81233 14.3292 9.63635 14.3292Z" fill="#303030"/>
<path id="Vector_11" d="M9.63635 16.7578H8.35643C7.82721 16.7578 7.39648 17.1657 7.39648 17.6668C7.39648 18.168 7.82721 18.5759 8.35643 18.5759H9.63635C10.1656 18.5759 10.5963 18.168 10.5963 17.6668C10.5965 17.1657 10.1657 16.7578 9.63635 16.7578ZM9.63635 17.97H8.35643C8.18045 17.97 8.03645 17.8342 8.03645 17.667C8.03645 17.4997 8.18045 17.364 8.35643 17.364H9.63635C9.81233 17.364 9.95633 17.4997 9.95633 17.667C9.95633 17.8342 9.81233 17.97 9.63635 17.97Z" fill="#303030"/>
</g>
</svg>
