<svg width="264" height="61" viewBox="0 0 264 61" fill="none" xmlns="http://www.w3.org/2000/svg">
<g clip-path="url(#clip0_11266_15383)">
<path d="M186.34 51.7109L184.19 55.6423H174.606L186.34 51.7109ZM186.893 48.0995L170.018 53.8389L169.977 53.8524L167.45 58.5142H182.627L181.329 60.9082H186.893L188.238 58.4375H191.332L192.853 55.6423H189.759L193.849 48.0995H186.898H186.893Z" fill="#E35205"/>
<path d="M211.884 51.7109L209.734 55.6423H200.15L211.884 51.7109ZM212.437 48.0995L195.563 53.8389L195.521 53.8524L192.999 58.5142H208.176L206.878 60.9082H212.442L213.787 58.4375H216.876L218.397 55.6423H215.303L219.393 48.0995H212.442H212.437Z" fill="#E35205"/>
<mask id="mask0_11266_15383" style="mask-type:luminance" maskUnits="userSpaceOnUse" x="0" y="0" width="264" height="61">
<path d="M264 0H0V61H264V0Z" fill="white"/>
</mask>
<g mask="url(#mask0_11266_15383)">
<path d="M244.527 48.5751C243.248 48.1513 241.056 48.0026 236.139 48.0026C231.947 48.0026 229.332 48.1378 227.662 48.4399C224.679 48.9809 223.074 50.1666 221.292 53.1513C220.05 55.2477 219.148 57.1593 218.929 58.1467C218.654 59.391 219.166 60.171 220.534 60.6038C221.586 60.9149 223.405 61.0051 228.639 61.0051C233.031 61.0051 235.064 60.942 236.692 60.7571C239.005 60.5046 240.861 59.6525 242.057 58.2864C243.499 56.6544 245.639 52.7455 246.007 51.0683C246.291 49.7789 245.849 49.035 244.532 48.5751M239.754 52.3758C239.605 53.0521 238.311 55.4731 237.628 56.3613C236.711 57.5065 235.376 57.7905 230.812 57.7905H230.798C227.55 57.7905 225.824 57.6958 225.41 57.1864C225.289 57.0376 225.266 56.8347 225.331 56.5326C225.554 55.5227 227.048 52.9529 227.829 52.2406C228.704 51.402 230.165 51.1585 234.352 51.1585C236.45 51.1585 238.177 51.2306 238.753 51.3434C239.247 51.4471 239.549 51.6003 239.689 51.8122C239.782 51.9565 239.805 52.1414 239.754 52.3758Z" fill="#E35205"/>
<path d="M237.023 23.5468H236.288L236.651 21.5901H235.99L236.088 21.0851H238.135L238.042 21.5901H237.381L237.018 23.5468H237.023ZM238.391 21.0851H239.298L239.48 22.5549H239.494L240.21 21.0851H241.182L240.731 23.5468H240.071L240.392 21.7795H240.378L239.535 23.5468H239.084L238.879 21.7795H238.861L238.54 23.5468H237.94L238.391 21.0851Z" fill="#E35205"/>
<path d="M264.007 0H238.581L223.362 10.8474L215.792 0H193.465L207.878 20.4235L174.403 42.7496H200.406L216.83 31.0681L225.228 42.7496H247.932L232.7 21.6859L264.007 0ZM242.307 39.774H226.577L217.323 26.9067L199.229 39.774H184.29L211.838 21.0682L199.039 2.97561H214.411L222.827 15.0404L239.753 2.97561H254.33L228.68 21.0231L242.312 39.774H242.307Z" fill="#E35205"/>
<path d="M166.22 15.2112L178.558 15.1977L180.219 12.1635L167.857 12.1725L166.22 15.2112Z" fill="black"/>
<path d="M117.337 19.391L118.942 16.4064L107.403 16.4244L112.219 7.49756L106.585 7.50658L100.164 19.418L117.337 19.391Z" fill="black"/>
<path d="M41.2686 19.4938L46.9355 19.4848L53.3467 7.57788L47.6938 7.58239L45.3443 11.9421L34.4992 11.9556L36.8487 7.60042L31.2191 7.60944L24.7939 19.5209L30.4235 19.5119L32.8987 14.9222L43.7438 14.9042L41.2686 19.4938Z" fill="black"/>
<path d="M102.425 8.34202C101.848 7.78748 100.536 7.51697 98.4978 7.51697L82.6466 7.53951L76.2354 19.451L81.851 19.4419L83.6003 16.2094L91.8028 16.1958C93.0125 16.1958 93.594 16.3672 93.5522 16.7098C93.5103 17.057 93.2311 17.6972 92.9148 18.2833L92.3006 19.4239L97.558 19.4149L98.8933 16.9487C99.3167 16.1643 99.3306 15.6142 98.9445 15.2986C98.549 14.9876 97.7906 14.7757 96.6554 14.6674C97.6929 14.5322 98.4048 14.3654 99.0608 14.1445C99.0608 14.1445 100.536 13.6305 101.387 12.4673C101.671 12.0796 101.866 11.8046 102.155 11.268C102.913 9.86139 103.002 8.88304 102.425 8.33301M96.6554 11.7685C96.3018 12.3907 95.9389 12.8009 95.5714 12.9903C95.1713 13.1932 94.385 13.2969 93.2125 13.2969H92.5472L85.159 13.3059L86.7129 10.4114L94.4827 10.4024H94.8921C95.1992 10.4024 95.4597 10.4069 95.6737 10.4159C95.8877 10.4295 96.1529 10.47 96.46 10.5377C96.7717 10.6098 96.9299 10.7405 96.9392 10.9299C96.9439 11.1147 96.8508 11.3943 96.6554 11.764" fill="black"/>
<path d="M64.7966 7.5665L48.9453 19.4915L54.5982 19.4825L57.4316 17.3184L68.514 17.3004L68.9513 19.4599L74.6367 19.4509L71.7894 7.55298L64.7966 7.562V7.5665ZM60.6046 14.8522L67.0484 9.8478L68.0348 14.8432L60.6093 14.8522H60.6046Z" fill="black"/>
<path d="M119.47 19.3917L138.461 19.3601L139.913 16.664L126.556 16.6866L127.691 14.5766L140.132 14.5586L141.402 12.2006L128.961 12.2187L130.059 10.1853L143.421 10.1673L144.919 7.45319L125.895 7.48024L119.47 19.3917Z" fill="black"/>
<path d="M164.635 7.42619L156.032 12.6606L153.152 7.43972L146.615 7.45324L151.896 15.5235L149.905 19.3467L155.111 19.3422L157.107 15.5144L171.106 7.41718L164.635 7.42619Z" fill="black"/>
<path d="M40.0299 24.4179L24.1182 36.3429L29.8315 36.3339L32.6649 34.1698L43.7519 34.1518L44.1893 36.3114L49.8887 36.3023L47.0273 24.4044L40.0346 24.4134L40.0299 24.4179ZM35.838 31.7037L42.2771 26.6992L43.2634 31.6947L35.838 31.7037Z" fill="black"/>
<path d="M154.327 29.4155C155.462 27.3055 155.439 25.9033 154.704 25.2045C153.969 24.5057 152.312 24.154 149.283 24.1586L145.157 24.1495L141.453 24.2081C138.136 24.2127 135.61 24.5869 134.321 25.3353C133.032 26.0792 131.967 27.6617 130.659 30.0782L129.529 32.2739C128.78 33.667 128.994 34.6724 129.729 35.2991C130.464 35.9257 131.594 36.2323 133.567 36.2323L137.043 36.3135L138.685 36.2954L142.616 36.2368C146.208 36.2323 148.897 35.8085 150.233 34.9699C151.573 34.1268 152.685 32.4677 154.02 29.9925L154.327 29.42V29.4155ZM149.074 28.365C148.958 28.7527 148.753 29.2216 148.455 29.7716L147.534 31.3812C147.064 32.2513 146.45 32.8013 145.696 33.0223C144.938 33.2432 143.831 33.3559 142.365 33.3559L140.597 33.3784L137.834 33.3469C136.387 33.3469 135.582 33.162 135.424 32.7788C135.265 32.3956 135.479 31.6562 136.07 30.5606L136.331 30.0782L136.508 29.7536C136.698 29.3974 136.991 28.9466 137.378 28.4011C137.764 27.8555 138.308 27.5039 139.011 27.3325C139.713 27.1657 140.653 27.0801 141.825 27.0756L146.092 27.053C146.739 27.053 147.329 27.0801 147.869 27.1387C148.404 27.1973 148.767 27.319 148.962 27.5039C149.153 27.6887 149.19 27.9773 149.074 28.3605" fill="black"/>
<path d="M177.384 24.2205L172.699 32.9445L167.13 24.2385L159.328 24.2476L152.902 36.159L157.778 36.1545L162.524 27.4576L167.8 36.1365L175.835 36.1275L182.26 24.216L177.384 24.2205Z" fill="black"/>
<path d="M127.533 29.6044C126.798 29.122 125.332 28.8831 123.136 28.8876L119.726 28.8741L116.725 28.8425H116.19C115.441 28.8425 114.887 28.7794 114.529 28.6396C114.166 28.5044 114.11 28.2158 114.343 27.774C114.515 27.4539 114.822 27.2239 115.259 27.0842C115.701 26.9489 116.185 26.8768 116.711 26.8768L120.265 26.7821L122.308 26.7956C122.936 26.7956 123.383 26.8768 123.639 27.0436C123.899 27.2104 123.913 27.5035 123.69 27.9183L129.217 27.9092C129.543 27.3051 129.752 26.8272 129.836 26.48C129.919 26.1374 129.892 25.7497 129.757 25.3214C129.622 24.8931 129.156 24.6 128.356 24.4377C127.556 24.2799 126.435 24.1987 124.992 24.2033L121.387 24.1717C120.773 24.1717 119.568 24.1897 117.772 24.2303C115.976 24.2664 114.473 24.3836 113.273 24.582C112.068 24.7803 110.886 25.1545 110.174 25.7001C109.458 26.2501 109.062 27.0166 108.527 28.0039C107.899 29.1671 107.759 30.0373 108.108 30.6008C108.457 31.1689 109.434 31.4484 111.03 31.4439L119.037 31.5566H119.879C120.814 31.5566 121.396 31.6468 121.629 31.8407C121.857 32.03 121.885 32.287 121.712 32.6071C121.522 32.9633 121.233 33.2248 120.856 33.3961C120.475 33.5629 119.809 33.6486 118.856 33.6486L115.794 33.7252L113.803 33.7117C112.97 33.7117 112.351 33.6531 111.951 33.5268C111.551 33.4006 111.481 33.094 111.747 32.6071L111.83 32.4087L106.275 32.4177L105.889 33.1301C105.21 34.3925 105.191 35.231 105.833 35.6458C106.475 36.0606 107.717 36.268 109.555 36.2635L112.998 36.3131L119.702 36.1778C121.764 36.1778 123.601 35.9118 124.778 35.3843C125.956 34.8613 126.695 33.8965 127.454 32.4899C128.235 31.0381 128.263 30.0733 127.523 29.5909" fill="black"/>
<path d="M76.9225 24.3619L70.502 36.2733L76.1315 36.2643L82.5567 24.3574L76.9225 24.3619Z" fill="black"/>
<path d="M105.001 30.729L105.201 30.3548L105.569 29.674C106.723 27.5324 106.518 26.1032 105.848 25.3909C105.178 24.6785 103.75 24.3224 100.675 24.3269L85.6654 24.3494L79.2402 36.2609L96.1662 36.2383C97.683 36.2383 99.3067 35.9723 100.591 35.4448C101.875 34.9174 102.568 34.3087 103.113 33.6144C103.657 32.9201 104.006 32.4557 104.155 32.2303C104.304 32.0049 104.527 31.6126 104.829 31.0536L105.001 30.7335V30.729ZM99.6045 30.2105L99.5486 30.3187C98.9205 31.4819 98.2878 32.2709 97.6457 32.6856C97.0037 33.1004 95.8871 33.3123 94.2866 33.3123L86.4563 33.3258L89.7224 27.2709L97.6318 27.2574C99.2648 27.2574 100.158 27.4558 100.316 27.857C100.474 28.2583 100.237 29.0428 99.6091 30.206" fill="black"/>
<path d="M68.9427 24.3747L57.6091 33.3556L55.2781 24.3972L49.6113 24.4062L52.6588 36.2997L59.2607 36.2906L74.7026 24.3657L68.9427 24.3747Z" fill="black"/>
<path d="M24.9144 32.3422C25.0633 32.1167 25.2866 31.7245 25.5891 31.1655L25.7612 30.8454L25.9613 30.4711L26.3288 29.7904C27.4826 27.6488 27.2779 26.2196 26.608 25.5073C25.938 24.7949 24.5097 24.4388 21.4343 24.4433L6.42518 24.4658L0 36.3773L16.9213 36.3547C18.4381 36.3547 19.8338 36.0887 21.1226 35.5612C22.4067 35.0383 23.3233 34.4251 23.8676 33.7263C24.412 33.032 24.7609 32.5676 24.9098 32.3422M20.3596 30.3224L20.3038 30.4306C19.6757 31.5938 19.0429 32.3827 18.4009 32.7975C17.7588 33.2123 16.6375 33.4242 15.0417 33.4242L7.21146 33.4377L10.4776 27.3828L18.3869 27.3693C20.0199 27.3693 20.9179 27.5677 21.0714 27.9689C21.2296 28.3702 20.9923 29.1547 20.3642 30.3179" fill="black"/>
<path d="M184.121 25.8564C184.116 25.7932 184.107 25.7482 184.088 25.7211C184.069 25.6941 184.042 25.676 183.99 25.6625C184.097 25.6174 184.144 25.5272 184.144 25.4235C184.144 25.3649 184.13 25.3153 184.107 25.2748C184.037 25.144 183.893 25.135 183.762 25.135H183.33V26.181H183.479V25.7346H183.73C183.827 25.7346 183.893 25.7482 183.916 25.7662C183.944 25.7887 183.962 25.8338 183.967 25.906L183.976 26.0367C183.976 26.0728 183.981 26.1449 184.004 26.181H184.176C184.144 26.1404 184.135 26.0863 184.125 26.0322L184.116 25.8564H184.121ZM183.739 25.6129H183.483V25.2612H183.739C183.874 25.2612 183.99 25.2793 183.99 25.4326C183.99 25.5904 183.879 25.6129 183.739 25.6129ZM183.72 24.7924C183.218 24.7924 182.809 25.1756 182.809 25.649C182.809 26.1179 183.218 26.5011 183.72 26.5011C184.214 26.5011 184.628 26.1179 184.628 25.649C184.628 25.1801 184.214 24.7924 183.72 24.7969M183.72 26.4019C183.278 26.4019 182.92 26.0683 182.92 25.6535C182.92 25.2387 183.278 24.9006 183.72 24.9006C184.158 24.9006 184.521 25.2387 184.521 25.649C184.521 26.0638 184.162 26.4019 183.72 26.4019Z" fill="white"/>
</g>
</g>
<defs>
<clipPath id="clip0_11266_15383">
<rect width="264" height="61" fill="white"/>
</clipPath>
</defs>
</svg>
